<svg width="24" height="18" viewBox="0 0 24 18" fill="none" xmlns="http://www.w3.org/2000/svg">
<path fill-rule="evenodd" clip-rule="evenodd" d="M12 0.25C9.65279 0.25 7.75 2.15279 7.75 4.5C7.75 6.84721 9.65279 8.75 12 8.75C14.3472 8.75 16.25 6.84721 16.25 4.5C16.25 2.15279 14.3472 0.25 12 0.25ZM9.25 4.5C9.25 2.98122 10.4812 1.75 12 1.75C13.5188 1.75 14.75 2.98122 14.75 4.5C14.75 6.01878 13.5188 7.25 12 7.25C10.4812 7.25 9.25 6.01878 9.25 4.5Z" fill="#9E9E9E"/>
<path d="M5.50004 2.25C3.70512 2.25 2.25004 3.70507 2.25004 5.5C2.25004 7.29493 3.70512 8.75 5.50004 8.75C5.91426 8.75 6.25004 8.41421 6.25004 8C6.25004 7.58579 5.91426 7.25 5.50004 7.25C4.53355 7.25 3.75004 6.4665 3.75004 5.5C3.75004 4.5335 4.53355 3.75 5.50004 3.75C5.91426 3.75 6.25004 3.41421 6.25004 3C6.25004 2.58579 5.91426 2.25 5.50004 2.25Z" fill="#9E9E9E"/>
<path d="M5.74699 9.93242C5.70967 9.5199 5.345 9.21573 4.93247 9.25305C3.99394 9.33796 3.08139 9.69902 2.2771 10.3184C2.23076 10.3541 2.16971 10.3985 2.09798 10.4506C1.75729 10.6985 1.1756 11.1217 0.783584 11.6179C0.533102 11.935 0.298862 12.3499 0.25669 12.8489C0.212523 13.3714 0.387699 13.8791 0.763256 14.3418C1.33811 15.0501 2.12691 15.75 3.226 15.75C3.64021 15.75 3.976 15.4142 3.976 15C3.976 14.5858 3.64021 14.25 3.226 14.25C2.82649 14.25 2.42331 14.0069 1.92792 13.3965C1.75575 13.1844 1.74495 13.051 1.75136 12.9752C1.75976 12.8758 1.81264 12.7351 1.96062 12.5477C2.20986 12.2322 2.55925 11.9754 2.89885 11.7258C2.99843 11.6526 3.09716 11.5801 3.19228 11.5068C3.78265 11.0522 4.42731 10.8049 5.06762 10.747C5.48015 10.7096 5.78431 10.345 5.74699 9.93242Z" fill="#9E9E9E"/>
<path d="M18 2.25C17.5858 2.25 17.25 2.58579 17.25 3C17.25 3.41421 17.5858 3.75 18 3.75C18.9665 3.75 19.75 4.5335 19.75 5.5C19.75 6.4665 18.9665 7.25 18 7.25C17.5858 7.25 17.25 7.58579 17.25 8C17.25 8.41421 17.5858 8.75 18 8.75C19.7949 8.75 21.25 7.29493 21.25 5.5C21.25 3.70507 19.7949 2.25 18 2.25Z" fill="#9E9E9E"/>
<path d="M19.0676 9.25305C18.655 9.21573 18.2904 9.5199 18.253 9.93242C18.2157 10.345 18.5199 10.7096 18.9324 10.747C19.5727 10.8049 20.2174 11.0522 20.8078 11.5068C20.9029 11.5801 21.0016 11.6526 21.1011 11.7258C21.4407 11.9754 21.7902 12.2322 22.0394 12.5477C22.1874 12.7351 22.2403 12.8758 22.2487 12.9752C22.2551 13.051 22.2443 13.1844 22.0721 13.3965C21.5767 14.0069 21.1736 14.25 20.774 14.25C20.3598 14.25 20.024 14.5858 20.024 15C20.024 15.4142 20.3598 15.75 20.774 15.75C21.8731 15.75 22.6619 15.0501 23.2368 14.3418C23.6123 13.8791 23.7875 13.3714 23.7434 12.8489C23.7012 12.3499 23.4669 11.935 23.2165 11.6179C22.8244 11.1217 22.2429 10.6986 21.9022 10.4507C21.8304 10.3985 21.7693 10.3541 21.7229 10.3184C20.9187 9.69902 20.0061 9.33796 19.0676 9.25305Z" fill="#9E9E9E"/>
<path fill-rule="evenodd" clip-rule="evenodd" d="M7.68951 11.4733C10.3273 9.84224 13.673 9.84224 16.3108 11.4733C16.3885 11.5214 16.487 11.579 16.6001 11.6452C17.1124 11.9449 17.9257 12.4208 18.4806 12.9849C18.8291 13.3391 19.1767 13.8221 19.2401 14.4242C19.3079 15.0683 19.0345 15.6646 18.5129 16.1806C17.6513 17.033 16.584 17.75 15.1845 17.75H8.81577C7.41632 17.75 6.34899 17.033 5.48736 16.1806C4.9658 15.6646 4.6924 15.0683 4.7602 14.4242C4.82357 13.8221 5.17117 13.3391 5.5197 12.9849C6.0746 12.4208 6.88779 11.945 7.40006 11.6452C7.51324 11.579 7.61174 11.5214 7.68951 11.4733ZM15.5219 12.7491C13.3676 11.417 10.6327 11.417 8.47839 12.7491C8.34907 12.8291 8.21041 12.9108 8.06734 12.9952C7.55547 13.297 6.9872 13.6321 6.58898 14.0368C6.34399 14.2859 6.26391 14.4676 6.25196 14.5812C6.24443 14.6527 6.24804 14.8231 6.54233 15.1143C7.27487 15.839 7.98302 16.25 8.81577 16.25H15.1845C16.0173 16.25 16.7254 15.839 17.458 15.1143C17.7523 14.8231 17.7559 14.6527 17.7483 14.5812C17.7364 14.4676 17.6563 14.2859 17.4113 14.0368C17.0131 13.6321 16.4449 13.297 15.933 12.9952C15.7899 12.9108 15.6512 12.8291 15.5219 12.7491Z" fill="#9E9E9E"/>
</svg>
