<svg width="16" height="22" viewBox="0 0 16 22" fill="none" xmlns="http://www.w3.org/2000/svg">
<path d="M1.75 8C1.75 4.54822 4.54822 1.75 8 1.75C11.4518 1.75 14.25 4.54822 14.25 8C14.25 10.3758 12.8211 12.4785 10.8021 13.8845C9.81787 14.57 9.18025 15.4583 8.8822 16.8421C8.40043 19.0789 6.95824 20.25 5.30769 20.25C4.50891 20.25 3.91989 19.9181 3.50985 19.376C3.08407 18.8131 2.82692 17.9844 2.82692 17H1.32692C1.32692 18.2247 1.64431 19.3961 2.3135 20.2808C2.99842 21.1864 4.02478 21.75 5.30769 21.75C7.82053 21.75 9.75342 19.9211 10.3486 17.1579C10.5669 16.1443 10.9874 15.5834 11.6594 15.1155C13.9481 13.5215 15.75 11.0088 15.75 8C15.75 3.71979 12.2802 0.25 8 0.25C3.71979 0.25 0.25 3.71979 0.25 8H1.75Z" fill="#9E9E9E"/>
<path d="M6.22163 6.82767C5.94742 7.37898 5.81544 8.09045 5.76956 8.83565C7.15372 9.14769 8.25782 10.2827 8.25782 11.75C8.25782 13.4813 6.72065 14.75 5 14.75V13.25C6.04941 13.25 6.75782 12.504 6.75782 11.75C6.75782 10.996 6.04941 10.25 5 10.25H4.25V9.5C4.25 8.45944 4.3653 7.19167 4.87858 6.15967C5.14105 5.63197 5.51767 5.14542 6.05284 4.79307C6.59184 4.43822 7.24559 4.25 8.00939 4.25C9.11497 4.25 10.0296 4.68223 10.6791 5.40948C11.3157 6.12236 11.6617 7.07563 11.7473 8.0867L10.2527 8.2133C10.1879 7.44853 9.93375 6.8268 9.5603 6.40864C9.19969 6.00485 8.69422 5.75 8.00939 5.75C7.50041 5.75 7.1416 5.87217 6.87768 6.04593C6.60995 6.22219 6.39332 6.48247 6.22163 6.82767Z" fill="#9E9E9E"/>
</svg>
