<svg width="20" height="20" viewBox="0 0 20 20" fill="none" xmlns="http://www.w3.org/2000/svg">
<path fill-rule="evenodd" clip-rule="evenodd" d="M18.1915 2.08152C16.4298 -0.118666 12.7694 -0.567047 10.1611 2.01755C10.1069 2.07132 10.0532 2.12342 10 2.17391C9.94685 2.12342 9.89312 2.07132 9.83886 2.01755C7.23058 -0.567047 3.57023 -0.118666 1.80854 2.08152C1.80217 2.08948 1.7957 2.09756 1.78913 2.10575C1.53175 2.42698 1.13544 2.9216 0.81357 3.65064C0.481693 4.40236 0.240263 5.37384 0.250303 6.65383C0.27022 9.19326 1.2793 12.9292 4.48922 18.6086C4.89514 19.3267 5.67976 19.75 6.49601 19.75C7.80785 19.75 8.83861 18.7042 8.88183 17.466C8.91231 16.5928 9.01196 15.7348 9.24397 15.1172C9.47642 14.4984 9.73487 14.3535 10 14.3535C10.2651 14.3535 10.5236 14.4984 10.756 15.1172C10.988 15.7348 11.0877 16.5928 11.1182 17.466C11.1614 18.7042 12.1921 19.75 13.504 19.75C14.3202 19.75 15.1049 19.3267 15.5108 18.6086C18.7207 12.9292 19.7298 9.19326 19.7497 6.65383C19.7597 5.37384 19.5183 4.40236 19.1864 3.65064C18.8646 2.92161 18.4683 2.42699 18.2109 2.10576C18.2043 2.09757 18.1978 2.08949 18.1915 2.08152ZM8.81629 3.11585C8.45892 3.34136 8.17383 3.4591 7.95977 3.50783C7.64427 3.57966 7.55455 3.49387 7.53033 3.46965C7.23744 3.17675 6.76256 3.17675 6.46967 3.46965C6.17678 3.76254 6.17678 4.23741 6.46967 4.53031C6.94545 5.00608 7.6074 5.12643 8.29274 4.97041C8.95355 4.81997 9.68435 4.40964 10.4776 3.7546C10.7173 3.55663 10.9641 3.33364 11.217 3.08303C13.22 1.0982 15.8398 1.54446 17.0206 3.01906L17.027 3.02705C17.2771 3.33948 17.5719 3.70759 17.8142 4.25646C18.0568 4.80593 18.2582 5.566 18.2497 6.64207C18.2327 8.81474 17.3596 12.2889 14.2049 17.8705C14.0838 18.0848 13.8186 18.25 13.504 18.25C13.0119 18.25 12.6327 17.856 12.6173 17.4137C12.5855 16.505 12.4815 15.4448 12.1602 14.5897C11.8394 13.7358 11.1951 12.8535 10 12.8535C8.80487 12.8535 8.16057 13.7358 7.83978 14.5897C7.51855 15.4448 7.41447 16.505 7.38274 17.4137C7.3673 17.856 6.98814 18.25 6.49601 18.25C6.18144 18.25 5.91618 18.0848 5.79508 17.8705C2.64038 12.2889 1.7673 8.81474 1.75026 6.64207C1.74182 5.566 1.9432 4.80593 2.18579 4.25646C2.42811 3.7076 2.72287 3.33948 2.97304 3.02706L2.97944 3.01906C4.16016 1.54446 6.78002 1.0982 8.78305 3.08303C8.79414 3.09403 8.80522 3.10497 8.81629 3.11585Z" fill="#9E9E9E"/>
</svg>
