<svg width="14" height="22" viewBox="0 0 14 22" fill="none" xmlns="http://www.w3.org/2000/svg">
<path fill-rule="evenodd" clip-rule="evenodd" d="M8.41617 0.65319C7.72447 0.254849 6.9319 0.139483 6.19651 0.360143C5.46491 0.579668 4.87064 1.07901 4.48824 1.88496L4.47266 1.91823L4.45685 1.95305C4.06627 2.82939 4.28779 3.5716 4.47937 4.09123C4.51097 4.17691 4.53942 4.25124 4.56506 4.31823C4.62514 4.47521 4.66983 4.59194 4.70336 4.7201C4.74414 4.87598 4.74241 4.96663 4.72373 5.03778C4.67332 5.22984 4.60155 5.32454 4.53297 5.38788C4.45076 5.4638 4.33157 5.53279 4.12551 5.61888C4.07118 5.64158 4.00715 5.66596 3.93568 5.69318C3.5472 5.84111 2.93896 6.07273 2.47445 6.57241C1.51308 7.60657 1.27244 8.66899 1.21903 9.45331L1.21681 9.48592C1.19097 9.57069 1.15916 9.6776 1.123 9.80423C1.02588 10.1443 0.897022 10.628 0.768268 11.2077C0.512006 12.3615 0.250427 13.9212 0.250427 15.4975C0.250427 17.0777 0.51305 18.5169 0.772797 19.5565C0.903077 20.0779 1.03369 20.5029 1.13263 20.7999C1.18213 20.9485 1.22379 21.0653 1.25366 21.1464C1.26859 21.1869 1.28058 21.2186 1.28914 21.2408L1.29934 21.2671L1.30239 21.2749L1.30338 21.2774L1.30402 21.279C1.41788 21.5638 1.6937 21.7506 2.00043 21.7506H11.9995C12.3063 21.7506 12.5822 21.5635 12.6961 21.2787L12.6976 21.2749L12.7006 21.2671L12.7108 21.2408C12.7194 21.2186 12.7314 21.1869 12.7463 21.1464C12.7762 21.0653 12.8178 20.9485 12.8673 20.7999C12.9663 20.5029 13.0969 20.0779 13.2272 19.5565C13.4869 18.5169 13.7495 17.0777 13.7495 15.4975C13.7495 13.9212 13.488 12.3615 13.2317 11.2077C13.103 10.628 12.9741 10.1443 12.877 9.80423C12.8284 9.63406 12.7876 9.49948 12.7587 9.40641C12.7442 9.35986 12.7327 9.32367 12.7246 9.29856L12.7151 9.2693L12.7124 9.26107L12.7116 9.25859L12.7112 9.25745C12.7112 9.25745 12.7112 9.25743 12.6993 9.26136C12.6245 8.50586 12.4376 7.93996 12.1707 7.4828C11.908 7.03286 11.5853 6.72537 11.3462 6.49751L11.2946 6.44824C11.0071 6.17285 10.6884 5.99354 10.41 5.86101C10.2713 5.79498 10.1337 5.73657 10.014 5.68583L10.0095 5.68394C9.88671 5.63188 9.78413 5.5884 9.68853 5.54317C9.49132 5.44986 9.39314 5.37972 9.33801 5.31882C9.29971 5.2765 9.25656 5.21244 9.24304 5.05889C9.22596 4.86486 9.25298 4.72278 9.3081 4.55725C9.33616 4.47297 9.36886 4.38998 9.41193 4.28069L9.42819 4.23942C9.47678 4.11593 9.53408 3.96796 9.58636 3.80038C9.94341 2.65603 9.52338 1.29083 8.41617 0.65319ZM5.83415 2.54778C6.03569 2.11193 6.33242 1.88544 6.62762 1.79686C6.92905 1.70641 7.29702 1.73964 7.66759 1.95305C8.09605 2.1998 8.32744 2.79914 8.15444 3.35361C8.1194 3.46593 8.07917 3.57122 8.03235 3.69022L8.01647 3.73047C7.97529 3.83478 7.92674 3.95776 7.8849 4.0834C7.78233 4.39148 7.70945 4.74334 7.74882 5.19045C7.78923 5.64945 7.95518 6.02629 8.2259 6.32539C8.4798 6.60591 8.79057 6.77773 9.04699 6.89905C9.17103 6.95774 9.29879 7.01188 9.41221 7.05995L9.42859 7.06689C9.55116 7.11884 9.66009 7.16532 9.76526 7.21538C9.97462 7.31504 10.1331 7.41279 10.257 7.53148L10.2829 7.55629C10.5391 7.8015 10.7221 7.97675 10.8754 8.23916C10.9523 8.37092 11.0274 8.53615 11.0889 8.75426H2.86753C2.98911 8.38853 3.2015 7.9934 3.57307 7.5937C3.78063 7.37043 4.00586 7.28144 4.37305 7.13637C4.47214 7.09722 4.58156 7.05399 4.70376 7.00294C4.96006 6.89586 5.27353 6.74579 5.55069 6.4898C5.84149 6.22123 6.0558 5.87116 6.17459 5.4186C6.28091 5.01352 6.23406 4.64444 6.15451 4.34041C6.09828 4.12551 6.01043 3.89645 5.94108 3.71561C5.92103 3.66332 5.90252 3.61506 5.88677 3.57234C5.72919 3.14494 5.68118 2.87857 5.83415 2.54778ZM11.4455 10.2543H2.55449C2.4654 10.5687 2.34904 11.0086 2.23259 11.5329C1.98885 12.6303 1.75043 14.0723 1.75043 15.4975C1.75043 16.9191 1.9878 18.2313 2.22806 19.1929C2.33694 19.6286 2.44554 19.9889 2.53093 20.2506H11.469C11.5544 19.9889 11.663 19.6286 11.7719 19.1929C11.8771 18.7718 11.9818 18.2835 12.0662 17.7482H9.00043V16.2482H12.2281C12.242 16.0024 12.2495 15.7517 12.2495 15.4975C12.2495 14.908 12.2088 14.3156 12.1437 13.746H9.00043V12.246H11.9142C11.8668 11.9959 11.8172 11.7572 11.7674 11.5329C11.6509 11.0086 11.5346 10.5687 11.4455 10.2543Z" fill="#9E9E9E"/>
</svg>
