<svg width="22" height="20" viewBox="0 0 22 20" fill="none" xmlns="http://www.w3.org/2000/svg">
<path fill-rule="evenodd" clip-rule="evenodd" d="M5 15.25C4.30964 15.25 3.75 15.8096 3.75 16.5C3.75 17.1904 4.30964 17.75 5 17.75C5.69036 17.75 6.25 17.1904 6.25 16.5C6.25 15.8096 5.69036 15.25 5 15.25ZM2.25 16.5C2.25 14.9812 3.48122 13.75 5 13.75C5.52366 13.75 6.01313 13.8964 6.42974 14.1504L9.62705 12.0652L3.77705 8.25H1C0.585786 8.25 0.25 7.91421 0.25 7.5V4C0.25 3.58579 0.585786 3.25 1 3.25H2.25V1.5C2.25 1.08579 2.58579 0.75 3 0.75H7C7.41421 0.75 7.75 1.08579 7.75 1.5V3.25H21C21.4142 3.25 21.75 3.58579 21.75 4V7.5C21.75 7.91421 21.4142 8.25 21 8.25H18.223L12.373 12.0652L15.5703 14.1504C15.9869 13.8964 16.4763 13.75 17 13.75C18.5188 13.75 19.75 14.9812 19.75 16.5C19.75 18.0188 18.5188 19.25 17 19.25C15.4812 19.25 14.25 18.0188 14.25 16.5C14.25 16.0576 14.3545 15.6396 14.5401 15.2694L11 12.9606L7.45994 15.2694C7.64554 15.6396 7.75 16.0576 7.75 16.5C7.75 18.0188 6.51878 19.25 5 19.25C3.48122 19.25 2.25 18.0188 2.25 16.5ZM11 11.1698L15.477 8.25H6.52295L11 11.1698ZM3.75 3.25V2.25H6.25V3.25H3.75ZM1.75 6.75V4.75H20.25V6.75H1.75ZM15.75 16.5C15.75 15.8096 16.3096 15.25 17 15.25C17.6904 15.25 18.25 15.8096 18.25 16.5C18.25 17.1904 17.6904 17.75 17 17.75C16.3096 17.75 15.75 17.1904 15.75 16.5Z" fill="#9E9E9E"/>
</svg>
