<svg width="14" height="22" viewBox="0 0 14 22" fill="none" xmlns="http://www.w3.org/2000/svg">
<path d="M5.75808 6.25H4.25V7.75H5.75808V6.25Z" fill="#9E9E9E"/>
<path d="M9.75811 6.25H8.25003V7.75H9.75811V6.25Z" fill="#9E9E9E"/>
<path fill-rule="evenodd" clip-rule="evenodd" d="M0.25 7C0.25 3.27234 3.27166 0.250422 6.99922 0.25C10.7271 0.25 13.75 3.27208 13.75 7C13.75 8.38941 13.3302 9.68078 12.6105 10.7542C13.3314 11.88 13.75 13.2331 13.75 14.6842C13.75 15.5924 13.586 16.4627 13.2862 17.263C12.3095 19.8703 9.87874 21.75 7 21.75C3.23629 21.75 0.25 18.5498 0.25 14.6842C0.25 13.2331 0.668591 11.88 1.38946 10.7542C0.669793 9.68078 0.25 8.38941 0.25 7ZM1.75 7C1.75 5.01603 2.85049 3.2891 4.47433 2.39633C4.45779 2.51166 4.44922 2.62972 4.44922 2.75C4.44922 4.15049 5.61095 5.25 6.99922 5.25C7.64564 5.25 8.23997 5.01312 8.69155 4.62018L7.70689 3.48861C7.52156 3.64988 7.27483 3.75 6.99922 3.75C6.39926 3.75 5.94922 3.28251 5.94922 2.75C5.94922 2.39134 6.15338 2.06217 6.47 1.88547L6.99922 1.75C9.89871 1.75 12.25 4.10051 12.25 7C12.25 9.8995 9.8995 12.25 7 12.25C4.10051 12.25 1.75 9.8995 1.75 7ZM6.47118 1.88481L4.47433 2.39633L6.47 1.88547C6.47039 1.88525 6.47079 1.88503 6.47118 1.88481ZM6.99746 1.75L6.47118 1.88481C6.62393 1.79983 6.80278 1.7503 6.99746 1.75ZM11.5789 11.9595C10.6492 12.8183 9.47755 13.4189 8.1777 13.6476C9.2755 14.3888 10.6812 15.2559 12.1127 15.9546C12.2024 15.5471 12.25 15.1219 12.25 14.6842C12.25 13.6918 12.0055 12.7631 11.5789 11.9595ZM5.53883 13.5914C4.35214 13.3295 3.28269 12.7554 2.42108 11.9595C1.99448 12.7631 1.75 13.6918 1.75 14.6842C1.75 17.7948 4.13629 20.25 7 20.25C8.96379 20.25 10.6975 19.1014 11.5984 17.3721C9.0221 16.1351 6.53683 14.3786 5.53883 13.5914Z" fill="#9E9E9E"/>
</svg>
