<svg width="18" height="24" viewBox="0 0 18 24" fill="none" xmlns="http://www.w3.org/2000/svg">
<path fill-rule="evenodd" clip-rule="evenodd" d="M15.4411 4.42966C15.0626 2.94458 13.9058 2.08001 12.6901 1.59968C11.4767 1.12024 10.0943 0.973022 9.00434 0.973022V2.47302C9.98734 2.47302 11.1637 2.6094 12.1389 2.99473C12.5626 3.16212 12.9272 3.36685 13.2216 3.61398L9.05962 7.48799L4.7927 3.60903C5.08603 3.36411 5.44862 3.161 5.86944 2.99473C6.84467 2.6094 8.02134 2.47302 9.00434 2.47302V0.973022C7.91439 0.973022 6.53165 1.12024 5.31824 1.59968C4.10255 2.08001 2.94574 2.94458 2.56725 4.42966C2.29215 5.50906 2.16886 6.50044 2.31799 7.48138C2.46853 8.4716 2.88684 9.38884 3.59651 10.3382L4.56411 11.6385L0.0147705 15.5897L4.97302 23.0271L8.99479 17.5926L13.037 23.0246L17.9853 15.6021L13.5148 11.5381L14.4114 10.3388C15.1214 9.3892 15.5398 8.47179 15.6904 7.48138C15.8395 6.50044 15.7162 5.50907 15.4411 4.42966ZM12.3998 10.5245L13.21 9.44066C13.8061 8.64336 14.1016 7.95193 14.2074 7.25593C14.3102 6.58002 14.243 5.84249 14.018 4.92193L10.1734 8.50051L12.3998 10.5245ZM8.05918 16.3353L5.46215 12.8453L1.9953 15.8563L5.03706 20.419L8.05918 16.3353ZM3.80095 7.25593C3.69773 6.577 3.76599 5.83589 3.99339 4.90957L16.0213 15.8439L12.9696 20.4215L4.79931 9.44199L4.79832 9.44066C4.20226 8.64336 3.90676 7.95193 3.80095 7.25593Z" fill="#9E9E9E"/>
</svg>
