<svg width="18" height="22" viewBox="0 0 18 22" fill="none" xmlns="http://www.w3.org/2000/svg">
<path d="M0.626154 13.7246H3.43349L5.93349 15.0997H7.12615C7.93955 15.0997 8.48654 15.5421 8.73074 15.9823L6.62615 16.6839L3.86332 15.7629L3.38898 17.1859L6.62615 18.265L10.3762 17.015V16.5149L14.0736 15.2825C14.7015 15.0732 15.3837 15.3896 15.6295 16.0041L15.6728 16.1124L7.54999 20.1738L0.830312 18.2729L0.421997 19.7162L7.70095 21.7754L17.5781 16.8368L17.0222 15.447C16.4814 14.0951 14.9806 13.399 13.5993 13.8594L9.94067 15.079C9.39054 14.2331 8.36455 13.5997 7.12615 13.5997H6.31881L3.81881 12.2246H0.626154V13.7246Z" fill="#9E9E9E"/>
<path fill-rule="evenodd" clip-rule="evenodd" d="M8.36188 0.536058C8.66722 0.668344 8.92409 0.824968 9.12636 0.969202C9.32863 0.824972 9.58549 0.668348 9.89081 0.536066C10.7309 0.172083 11.92 0.0054034 13.2554 0.728868C14.9499 1.64686 15.7287 3.80239 15.2227 5.95418C14.7063 8.15048 12.8836 10.3554 9.39168 11.6761L9.12637 11.7764L8.86106 11.6761C5.36911 10.3554 3.54646 8.15048 3.02998 5.95418C2.52396 3.8024 3.30275 1.64685 4.99725 0.728865C6.33268 0.00539577 7.52178 0.172079 8.36188 0.536058ZM5.71175 2.04776C6.57176 1.58185 7.2686 1.69712 7.76557 1.91243C8.02435 2.02455 8.23318 2.16717 8.37701 2.28232C8.44818 2.3393 8.50123 2.38778 8.53423 2.41955C8.55067 2.43538 8.56195 2.44687 8.56781 2.45295L8.57174 2.45709L9.12638 3.07395L9.68102 2.45707L9.68495 2.45294C9.69081 2.44685 9.70208 2.43537 9.71852 2.41954C9.75152 2.38778 9.80457 2.33929 9.87573 2.28232C10.0195 2.16717 10.2284 2.02455 10.4871 1.91243C10.9841 1.69713 11.6809 1.58186 12.5409 2.04776C13.5055 2.57033 14.1517 3.95571 13.7626 5.61082C13.3947 7.17517 12.0702 8.98228 9.12637 10.1695C6.18258 8.98228 4.85802 7.17517 4.49015 5.61081C4.10093 3.9557 4.74716 2.57032 5.71175 2.04776Z" fill="#9E9E9E"/>
</svg>
