<svg width="20" height="20" viewBox="0 0 20 20" fill="none" xmlns="http://www.w3.org/2000/svg">
<path fill-rule="evenodd" clip-rule="evenodd" d="M5.44417 0.25C6.05534 0.25 6.55767 0.506236 7.0265 0.863942C7.46887 1.20146 7.95892 1.69154 8.54156 2.27423L17.7258 11.4584C18.3084 12.0411 18.7985 12.5311 19.1361 12.9735C19.4938 13.4423 19.75 13.9447 19.75 14.5558C19.75 15.167 19.4938 15.6693 19.1361 16.1382C18.7985 16.5805 18.3085 17.0706 17.7258 17.6532L17.6532 17.7258C17.0706 18.3085 16.5805 18.7985 16.1382 19.1361C15.6693 19.4938 15.167 19.75 14.5558 19.75C13.9447 19.75 13.4423 19.4938 12.9735 19.1361C12.5311 18.7985 12.0411 18.3085 11.4585 17.7258L2.27418 8.54151C1.69154 7.95891 1.20145 7.46885 0.863943 7.0265C0.506237 6.55767 0.25 6.05534 0.25 5.44417C0.25 4.833 0.506237 4.33067 0.863943 3.86184C1.20145 3.41947 1.69152 2.92944 2.27418 2.34683L2.34678 2.27423C2.92942 1.69154 3.41946 1.20146 3.86184 0.863942C4.33067 0.506236 4.833 0.25 5.44417 0.25ZM7.51717 3.37116C6.88857 2.74256 6.46934 2.32558 6.11663 2.05647C5.78122 1.80057 5.5955 1.75 5.44417 1.75C5.29284 1.75 5.10711 1.80057 4.77171 2.05647C4.419 2.32558 3.99977 2.74256 3.37117 3.37116C2.74256 3.99977 2.32558 4.419 2.05647 4.77171C1.80057 5.10711 1.75 5.29284 1.75 5.44417C1.75 5.5955 1.80057 5.78122 2.05647 6.11663C2.32558 6.46934 2.74256 6.88857 3.37117 7.51717L4.79333 8.93934L8.93934 4.79333L7.51717 3.37116ZM10 5.85399L5.85399 10L10 14.146L14.146 10L10 5.85399ZM15.2067 11.0607L11.0607 15.2067L12.4828 16.6288C13.1114 17.2574 13.5307 17.6744 13.8834 17.9435C14.2188 18.1994 14.4045 18.25 14.5558 18.25C14.7072 18.25 14.8929 18.1994 15.2283 17.9435C15.581 17.6744 16.0002 17.2574 16.6288 16.6288C17.2574 16.0002 17.6744 15.581 17.9435 15.2283C18.1994 14.8929 18.25 14.7072 18.25 14.5558C18.25 14.4045 18.1994 14.2188 17.9435 13.8834C17.6744 13.5307 17.2574 13.1114 16.6288 12.4828L15.2067 11.0607Z" fill="#9E9E9E"/>
<path d="M16.6288 3.37116C16.0002 2.74256 15.581 2.32558 15.2283 2.05647C14.8929 1.80057 14.7072 1.75 14.5558 1.75C14.4045 1.75 14.2188 1.80057 13.8834 2.05647C13.5307 2.32558 13.1114 2.74256 12.4828 3.37116C12.1899 3.66406 11.7151 3.66406 11.4222 3.37116C11.1293 3.07827 11.1293 2.6034 11.4222 2.3105L11.4584 2.27424C12.0411 1.69156 12.5311 1.20146 12.9735 0.863942C13.4423 0.506236 13.9447 0.25 14.5558 0.25C15.167 0.25 15.6693 0.506236 16.1382 0.863942C16.5805 1.20146 17.0706 1.69154 17.6532 2.27421L17.7258 2.34677C18.3085 2.92941 18.7985 3.41946 19.1361 3.86184C19.4938 4.33067 19.75 4.833 19.75 5.44417C19.75 6.05533 19.4938 6.55767 19.1361 7.0265C18.7985 7.46886 18.3085 7.9589 17.7258 8.54152L17.6895 8.57783C17.3966 8.87072 16.9217 8.87072 16.6288 8.57783C16.3359 8.28494 16.3359 7.81006 16.6288 7.51717C17.2574 6.88857 17.6744 6.46934 17.9435 6.11663C18.1994 5.78122 18.25 5.5955 18.25 5.44417C18.25 5.29284 18.1994 5.10711 17.9435 4.77171C17.6744 4.419 17.2574 3.99977 16.6288 3.37116Z" fill="#9E9E9E"/>
<path d="M2.3105 11.4222C2.6034 11.1293 3.07827 11.1293 3.37116 11.4222C3.66406 11.7151 3.66406 12.1899 3.37116 12.4828C2.74256 13.1114 2.32559 13.5307 2.05648 13.8834C1.80057 14.2188 1.75 14.4045 1.75 14.5558C1.75 14.7072 1.80057 14.8929 2.05648 15.2283C2.32559 15.581 2.74256 16.0002 3.37116 16.6288C3.99977 17.2574 4.419 17.6744 4.77171 17.9435C5.10711 18.1994 5.29284 18.25 5.44417 18.25C5.5955 18.25 5.78122 18.1994 6.11663 17.9435C6.46934 17.6744 6.88857 17.2574 7.51717 16.6288C7.81006 16.3359 8.28494 16.3359 8.57783 16.6288C8.87072 16.9217 8.87072 17.3966 8.57783 17.6895L8.54152 17.7258C7.95891 18.3085 7.46886 18.7985 7.0265 19.1361C6.55767 19.4938 6.05534 19.75 5.44417 19.75C4.833 19.75 4.33067 19.4938 3.86184 19.1361C3.41949 18.7986 2.92947 18.3085 2.34687 17.7259L2.27421 17.6532C1.69157 17.0706 1.20145 16.5805 0.863943 16.1382C0.506237 15.6693 0.250002 15.167 0.250002 14.5558C0.250002 13.9447 0.506237 13.4423 0.863943 12.9735C1.20146 12.5311 1.69154 12.0411 2.27422 11.4585L2.3105 11.4222Z" fill="#9E9E9E"/>
</svg>
