<svg width="22" height="20" viewBox="0 0 22 20" fill="none" xmlns="http://www.w3.org/2000/svg">
<path fill-rule="evenodd" clip-rule="evenodd" d="M10.9557 1.68687L11.0001 1.72232L11.0444 1.68688C11.4138 1.39406 11.9536 1.0276 12.6364 0.7347C14.0222 0.140319 15.9803 -0.138744 18.2123 1.05835C20.9949 2.55069 22.3605 6.12307 21.4866 9.80214C20.6027 13.5236 17.4619 17.356 11.2631 19.677L11.0001 19.7754L10.7371 19.677C4.53829 17.356 1.39743 13.5236 0.513453 9.80215C-0.360459 6.12307 1.00512 2.55069 3.78765 1.05834C6.01966 -0.138756 7.97788 0.140315 9.36363 0.734692C10.0465 1.0276 10.5863 1.39405 10.9557 1.68687ZM4.49661 2.38022C6.2563 1.43645 7.72705 1.66489 8.77235 2.11324C9.30498 2.34169 9.73128 2.63041 10.024 2.86241C10.1696 2.97783 10.28 3.0775 10.3517 3.14583C10.3875 3.17995 10.4135 3.20607 10.4292 3.22223L10.445 3.23867L10.4464 3.24021L11.0001 3.84985L11.5532 3.24076L11.5552 3.23866L11.571 3.22222C11.5867 3.20606 11.6126 3.17993 11.6484 3.14582C11.7201 3.07749 11.8305 2.97782 11.9761 2.8624C12.2688 2.63041 12.6951 2.34169 13.2277 2.11324C14.273 1.6649 15.7437 1.43646 17.5034 2.38023C19.5556 3.48088 20.781 6.28217 20.0272 9.4555C19.2948 12.5391 16.6595 15.9794 11.0001 18.172C5.50472 16.043 2.86069 12.7376 2.0414 9.72461H4.64896L6.92408 12.4547C7.07959 12.6414 7.31586 12.7411 7.55806 12.7224C7.80025 12.7037 8.01838 12.5688 8.14336 12.3605L10.5133 8.41059L12.3642 11.3721C12.5013 11.5914 12.7417 11.7246 13.0002 11.7246H16.0002V10.2246H13.4159L11.1362 6.57711C10.9979 6.35577 10.7544 6.22227 10.4934 6.22464C10.2324 6.22701 9.99142 6.36492 9.85712 6.58874L7.40041 10.6833L5.57641 8.49447C5.43391 8.32348 5.22283 8.22461 5.00024 8.22461H1.77542C1.55602 5.57408 2.71458 3.33598 4.49661 2.38022Z" fill="#9E9E9E"/>
</svg>
