<svg width="22" height="18" viewBox="0 0 22 18" fill="none" xmlns="http://www.w3.org/2000/svg">
<path fill-rule="evenodd" clip-rule="evenodd" d="M11.5 1.75C10.3252 1.75 9.32061 2.48704 8.92705 3.52653C8.85388 3.71978 8.70422 3.87429 8.5134 3.95357C8.32257 4.03286 8.10749 4.02989 7.91891 3.94538C7.6393 3.82007 7.32884 3.75 7 3.75C5.75736 3.75 4.75 4.75736 4.75 6C4.75 6.01263 4.7501 6.02524 4.75031 6.03782C4.7595 6.59944 4.97373 7.10987 5.32275 7.49981C5.59899 7.80846 5.57272 8.28261 5.26408 8.55885C4.95543 8.8351 4.48129 8.80883 4.20504 8.50019C3.77229 8.01667 3.46271 7.41911 3.32687 6.75846C2.44164 6.84539 1.75 7.59193 1.75 8.5C1.75 9.4665 2.5335 10.25 3.5 10.25H7.25949C7.33267 9.28922 7.82401 8.44526 8.54925 7.90038C8.88041 7.65157 9.35057 7.71833 9.59938 8.04949C9.84818 8.38066 9.78142 8.85081 9.45026 9.09962C9.02361 9.42017 8.75 9.92802 8.75 10.5C8.75 10.6208 8.76214 10.7381 8.78502 10.8508C8.9471 11.6493 9.65424 12.25 10.5 12.25C10.513 12.25 10.5259 12.25 10.5385 12.25C10.7558 12.2499 10.9256 12.2499 11.0882 12.2692L10.9998 13.014L11.0882 12.2692C11.8936 12.3648 12.6157 12.8111 13.0614 13.4887C13.1514 13.6255 13.2273 13.7774 13.3244 13.9717C13.3301 13.9831 13.3358 13.9946 13.3416 14.0062L14.6708 16.6646C14.8561 17.0351 14.7059 17.4856 14.3354 17.6708C13.9649 17.8561 13.5144 17.7059 13.3292 17.3354L12 14.6771C11.8776 14.4323 11.8431 14.366 11.8082 14.313C11.6056 14.005 11.2774 13.8022 10.9113 13.7587C10.8484 13.7512 10.7737 13.75 10.5 13.75C9.14753 13.75 7.98912 12.9244 7.49932 11.75H3.5C1.70507 11.75 0.25 10.2949 0.25 8.5C0.25 6.7641 1.61095 5.34607 3.32407 5.25468C3.66971 3.54067 5.18413 2.25 7 2.25C7.28723 2.25 7.56745 2.28242 7.83695 2.34391C8.57569 1.09145 9.93889 0.25 11.5 0.25C12.6092 0.25 13.6196 0.675619 14.3758 1.37079C14.7385 1.29162 15.1148 1.25 15.5 1.25C18.3995 1.25 20.75 3.6005 20.75 6.5C20.75 7.0098 20.6771 7.50352 20.541 7.9708C21.2776 8.56598 21.75 9.4774 21.75 10.5C21.75 12.2949 20.2949 13.75 18.5 13.75C17.814 13.75 17.3392 14.4352 17.5801 15.0775L18.2022 16.7367C18.3477 17.1245 18.1512 17.5568 17.7633 17.7022C17.3755 17.8477 16.9432 17.6512 16.7978 17.2633L16.1756 15.6042C15.567 13.9812 16.7667 12.25 18.5 12.25C19.4665 12.25 20.25 11.4665 20.25 10.5C20.25 9.82126 19.8638 9.23143 19.2956 8.94071C19.0577 8.819 18.788 8.75 18.5 8.75C17.6542 8.75 16.9471 9.35073 16.785 10.1492C16.7026 10.5551 16.3067 10.8174 15.9008 10.735C15.4949 10.6526 15.2326 10.2567 15.315 9.8508C15.6162 8.36703 16.9268 7.25 18.5 7.25C18.7261 7.25 18.9472 7.2732 19.1608 7.31739C19.2192 7.05465 19.25 6.78121 19.25 6.5C19.25 4.42893 17.5711 2.75 15.5 2.75C15.1052 2.75 14.726 2.81076 14.3705 2.92289C13.2491 3.27658 12.3538 4.14487 11.9632 5.24993L11.2561 5L11.9632 5.24994C11.8696 5.51477 11.8049 5.79345 11.7729 6.08241C11.7274 6.49411 11.3568 6.79097 10.9451 6.74546C10.5334 6.69995 10.2365 6.3293 10.282 5.91759C10.3267 5.51309 10.4175 5.12205 10.5489 4.75007C10.9492 3.61762 11.7262 2.66402 12.73 2.03952C12.3598 1.8541 11.9422 1.75 11.5 1.75Z" fill="#9E9E9E"/>
</svg>
