<svg width="22" height="20" viewBox="0 0 22 20" fill="none" xmlns="http://www.w3.org/2000/svg">
<path d="M20.4413 6.50059C20.4413 6.50059 20.4411 6.50031 20.9998 6C21.5586 5.49969 21.5582 5.4993 21.5582 5.4993L21.5565 5.49743L21.5529 5.49336L21.5406 5.47989C21.5303 5.46858 21.5156 5.45266 21.4968 5.43243C21.4591 5.39197 21.4045 5.33426 21.3338 5.26177C21.1926 5.11683 20.987 4.91248 20.7237 4.66854C20.1977 4.18135 19.4376 3.53252 18.4971 2.8829C16.6305 1.59353 13.9795 0.25 10.9998 0.25C8.02013 0.25 5.36915 1.59353 3.5025 2.8829C2.56204 3.53252 1.80194 4.18135 1.276 4.66854C1.01266 4.91248 0.807026 5.11683 0.66581 5.26177C0.595177 5.33426 0.540583 5.39197 0.502867 5.43243C0.484007 5.45266 0.46936 5.46858 0.45903 5.47989L0.446785 5.49336L0.443113 5.49743L0.441895 5.49879C0.441895 5.49879 0.441088 5.49969 0.999826 6C1.55857 6.50031 1.55832 6.50059 1.55832 6.50059L1.5594 6.49939L1.56665 6.49142C1.5736 6.48381 1.58476 6.47166 1.60004 6.45527C1.63061 6.42248 1.6776 6.37277 1.74017 6.30855C1.86537 6.18005 2.05266 5.99377 2.29535 5.76896C2.78147 5.31865 3.48583 4.71748 4.35501 4.1171C6.10765 2.90647 8.45667 1.75 10.9998 1.75C13.543 1.75 15.892 2.90647 17.6446 4.1171C18.5138 4.71748 19.2182 5.31865 19.7043 5.76896C19.947 5.99377 20.1343 6.18005 20.2595 6.30855C20.3221 6.37277 20.369 6.42248 20.3996 6.45527C20.409 6.46538 20.4169 6.47387 20.4232 6.48068C20.4271 6.48492 20.4303 6.4885 20.433 6.49142L20.4403 6.49939L20.4413 6.50059Z" fill="#9E9E9E"/>
<path fill-rule="evenodd" clip-rule="evenodd" d="M11 15.75C8.92893 15.75 7.25 14.0711 7.25 12C7.25 9.92893 8.92893 8.25 11 8.25C13.0711 8.25 14.75 9.92893 14.75 12C14.75 14.0711 13.0711 15.75 11 15.75ZM8.75 12C8.75 13.2426 9.75736 14.25 11 14.25C12.2426 14.25 13.25 13.2426 13.25 12C13.25 10.7574 12.2426 9.75 11 9.75C9.75736 9.75 8.75 10.7574 8.75 12Z" fill="#9E9E9E"/>
<path fill-rule="evenodd" clip-rule="evenodd" d="M4.20433 7.10033C5.98273 5.56594 8.29332 4.25 11 4.25C13.7067 4.25 16.0173 5.56593 17.7957 7.10033C19.5781 8.63821 20.8947 10.4535 21.6302 11.5934L21.8926 12L21.6302 12.4066C20.8947 13.5465 19.5781 15.3618 17.7957 16.8997C16.0173 18.4341 13.7067 19.75 11 19.75C8.29332 19.75 5.98273 18.4341 4.20433 16.8997C2.4219 15.3618 1.10533 13.5465 0.36982 12.4066L0.107422 12L0.36982 11.5934C1.10533 10.4535 2.4219 8.63821 4.20433 7.10033ZM1.8992 12C2.62191 13.0664 3.74578 14.5229 5.18422 15.764C6.81966 17.175 8.79342 18.25 11 18.25C13.2066 18.25 15.1804 17.175 16.8158 15.764C18.2542 14.5229 19.3781 13.0664 20.1008 12C19.3781 10.9336 18.2542 9.47712 16.8158 8.23604C15.1804 6.82498 13.2066 5.75 11 5.75C8.79342 5.75 6.81966 6.82498 5.18422 8.23604C3.74578 9.47712 2.62191 10.9336 1.8992 12Z" fill="#9E9E9E"/>
</svg>
