<svg width="22" height="22" viewBox="0 0 22 22" fill="none" xmlns="http://www.w3.org/2000/svg">
<path d="M9.07607 10.18C7.83604 8.93999 5.82556 8.93999 4.58553 10.18C3.5993 11.1663 3.39842 12.6382 3.97872 13.8225C4.02731 13.9217 4.04581 14.0212 4.0422 14.0933C4.03896 14.1579 4.01984 14.1756 4.01984 14.1756L0.46967 17.7258C0.176777 18.0187 0.176777 18.4935 0.46967 18.7864C0.762563 19.0793 1.23744 19.0793 1.53033 18.7864L5.0805 15.2362C5.71119 14.6056 5.59424 13.7106 5.32572 13.1625C5.01889 12.5364 5.12711 11.7598 5.64619 11.2407C6.30043 10.5864 7.36117 10.5864 8.01541 11.2407C8.28109 11.5064 8.43913 11.8388 8.48895 12.1847C8.06559 12.3385 7.66829 12.5851 7.32944 12.9239C7.03654 13.2168 7.03654 13.6917 7.32944 13.9846C7.62233 14.2775 8.0972 14.2775 8.39009 13.9846C8.65744 13.7172 8.99064 13.5599 9.33733 13.5107C9.84321 13.4388 10.3722 13.5974 10.7593 13.9846C11.4136 14.6388 11.4136 15.6996 10.7593 16.3538C10.2402 16.8729 9.46365 16.9811 8.83745 16.6743C8.28942 16.4058 7.39444 16.2888 6.76375 16.9195L3.21358 20.4697C2.92068 20.7626 2.92068 21.2374 3.21358 21.5303C3.50647 21.8232 3.98134 21.8232 4.27424 21.5303L7.82448 17.9801C7.82448 17.9801 7.8421 17.961 7.90668 17.9578C7.97882 17.9542 8.07829 17.9727 8.17745 18.0213C9.36179 18.6016 10.8337 18.4007 11.82 17.4145C13.06 16.1744 13.06 14.164 11.82 12.9239C11.3032 12.4072 10.6523 12.106 9.98015 12.0198C9.894 11.3477 9.59285 10.6968 9.07607 10.18Z" fill="#9E9E9E"/>
<path d="M18.7864 1.53033C19.0793 1.23744 19.0793 0.762564 18.7864 0.469669C18.4935 0.176777 18.0187 0.176777 17.7258 0.469669L14.1756 4.01984C14.1743 4.02125 14.1579 4.03896 14.0933 4.0422C14.0212 4.04581 13.9217 4.02731 13.8225 3.97872C12.6382 3.39842 11.1663 3.5993 10.18 4.58553C8.93999 5.82556 8.93999 7.83604 10.18 9.07607C10.6968 9.59285 11.3477 9.894 12.0198 9.98015C12.106 10.6523 12.4072 11.3032 12.9239 11.82C14.164 13.06 16.1744 13.06 17.4145 11.82C18.4007 10.8337 18.6016 9.36179 18.0213 8.17745C17.9727 8.07829 17.9542 7.97882 17.9578 7.90668C17.961 7.8421 17.9787 7.82578 17.9801 7.82448L21.5303 4.27424C21.8232 3.98134 21.8232 3.50647 21.5303 3.21358C21.2374 2.92068 20.7626 2.92068 20.4697 3.21358L16.9195 6.76375C16.2888 7.39444 16.4058 8.28942 16.6743 8.83745C16.9811 9.46365 16.8729 10.2402 16.3538 10.7593C15.6996 11.4136 14.6388 11.4136 13.9846 10.7593C13.7189 10.4936 13.5609 10.1612 13.5111 9.81529C13.9344 9.66152 14.3317 9.41493 14.6706 9.07607C14.9635 8.78318 14.9635 8.30831 14.6706 8.01541C14.3777 7.72252 13.9028 7.72252 13.6099 8.01541C13.3426 8.28275 13.0094 8.44011 12.6627 8.48934C12.1568 8.56117 11.6279 8.40258 11.2407 8.01541C10.5864 7.36117 10.5864 6.30043 11.2407 5.64619C11.7598 5.12711 12.5364 5.01889 13.1625 5.32572C13.7106 5.59424 14.6056 5.71119 15.2362 5.08051L18.7864 1.53033Z" fill="#9E9E9E"/>
<path d="M15 19.75C14.5858 19.75 14.25 19.4142 14.25 19V17C14.25 16.5858 14.5858 16.25 15 16.25C15.4142 16.25 15.75 16.5858 15.75 17V19C15.75 19.4142 15.4142 19.75 15 19.75Z" fill="#9E9E9E"/>
<path d="M19.75 15C19.75 15.4142 19.4142 15.75 19 15.75H17C16.5858 15.75 16.25 15.4142 16.25 15C16.25 14.5858 16.5858 14.25 17 14.25H19C19.4142 14.25 19.75 14.5858 19.75 15Z" fill="#9E9E9E"/>
<path d="M7.75 3C7.75 2.58579 7.41421 2.25 7 2.25C6.58579 2.25 6.25 2.58579 6.25 3V5C6.25 5.41421 6.58579 5.75 7 5.75C7.41421 5.75 7.75 5.41421 7.75 5V3Z" fill="#9E9E9E"/>
<path d="M3 6.25C2.58579 6.25 2.25 6.58579 2.25 7C2.25 7.41421 2.58579 7.75 3 7.75H5C5.41421 7.75 5.75 7.41421 5.75 7C5.75 6.58579 5.41421 6.25 5 6.25H3Z" fill="#9E9E9E"/>
</svg>
