<svg width="22" height="22" viewBox="0 0 22 22" fill="none" xmlns="http://www.w3.org/2000/svg">
<path d="M6.11845 0.414913L6.5 1.06061C6.11845 0.414913 6.11868 0.414782 6.11845 0.414913Z" fill="#9E9E9E"/>
<path fill-rule="evenodd" clip-rule="evenodd" d="M6.11845 0.414913L6.11601 0.416362L6.11156 0.419011L6.09679 0.427877C6.08438 0.435365 6.06688 0.446002 6.04464 0.459717C6.00015 0.487142 5.93663 0.526909 5.8568 0.578463C5.69722 0.681516 5.47195 0.831993 5.20282 1.02548C4.66591 1.41149 3.94763 1.97356 3.22643 2.67673C1.81471 4.05315 0.25 6.10811 0.25 8.53561C0.25 11.3022 2.03345 13.6514 4.51078 14.4859L4.98963 13.0644C3.10754 12.4304 1.75 10.6427 1.75 8.53561C1.75 6.7381 2.93529 5.05556 4.27357 3.75073C4.92737 3.11328 5.58409 2.59879 6.07843 2.24339C6.23867 2.12819 6.38113 2.03022 6.5 1.95071C6.698 2.08314 6.96109 2.26657 7.26257 2.4953C7.94336 3.0118 8.80423 3.74752 9.55376 4.63697L10.7008 3.67038C9.85632 2.66824 8.90355 1.85743 8.1692 1.30029C7.8004 1.02049 7.48275 0.801708 7.25563 0.651868C7.14198 0.576889 7.05076 0.519007 6.98684 0.479216C6.95487 0.459315 6.9297 0.443925 6.91196 0.43317L6.89097 0.420524L6.88479 0.416833L6.88279 0.415651L6.88155 0.414913L6.5 0.189453L6.11845 0.414913ZM6.88155 0.414913L6.5 1.06061C6.88155 0.414913 6.88142 0.414839 6.88155 0.414913Z" fill="#9E9E9E"/>
<path d="M16.75 14.5606C16.75 15.4809 16.4463 16.0063 16.0793 16.3154C15.6901 16.6433 15.1303 16.8106 14.5 16.8106V18.3106C15.3697 18.3106 16.3099 18.0825 17.0457 17.4626C17.8037 16.8241 18.25 15.8495 18.25 14.5606H16.75Z" fill="#9E9E9E"/>
<path fill-rule="evenodd" clip-rule="evenodd" d="M14 4.06061C13.6108 3.41952 13.6106 3.41964 13.6103 3.41978L13.608 3.42118L13.6028 3.4244L13.5848 3.4355C13.5695 3.44496 13.5478 3.45853 13.52 3.4761C13.4646 3.51126 13.3849 3.56249 13.2846 3.62907C13.0839 3.76219 12.8001 3.95701 12.4606 4.20774C11.7831 4.70825 10.8775 5.43644 9.9692 6.34638C8.18068 8.13809 6.25 10.766 6.25 13.8356C6.25 18.2175 9.6976 21.8106 14 21.8106C18.3024 21.8106 21.75 18.2175 21.75 13.8356C21.75 10.766 19.8193 8.13809 18.0308 6.34638C17.1225 5.43644 16.2169 4.70825 15.5394 4.20774C15.1999 3.95701 14.9161 3.76219 14.7154 3.62907C14.6151 3.56249 14.5354 3.51126 14.48 3.4761C14.4522 3.45853 14.4305 3.44496 14.4152 3.4355L14.3972 3.4244L14.392 3.42118L14.3903 3.42015C14.39 3.42001 14.3892 3.41952 14 4.06061ZM14 20.3106C10.5704 20.3106 7.75 17.4342 7.75 13.8356C7.75 11.3802 9.31932 9.12063 11.0308 7.40609C11.8725 6.5629 12.7169 5.88328 13.3519 5.41426C13.6078 5.22523 13.8285 5.07121 14 4.95526C14.1714 5.07121 14.3922 5.22523 14.6481 5.41426C15.2831 5.88328 16.1275 6.5629 16.9692 7.40609C18.6807 9.12063 20.25 11.3802 20.25 13.8356C20.25 17.4342 17.4296 20.3106 14 20.3106Z" fill="#9E9E9E"/>
<path d="M14 4.06061L14.3892 3.41952L14 3.1832L13.6103 3.41978L14 4.06061Z" fill="#9E9E9E"/>
</svg>
