<svg width="18" height="20" viewBox="0 0 18 20" fill="none" xmlns="http://www.w3.org/2000/svg">
<path d="M3.75653 0V0.775566C3.75653 1.54539 4.03048 2.30322 4.48013 3.10609C4.81732 3.70817 5.22114 4.28387 5.6469 4.89084C5.80004 5.10916 5.95602 5.33153 6.11276 5.56063C7.23416 7.19972 8.40841 9.19474 7.31695 11.5188C7.18254 11.8049 6.97197 12.0775 6.75407 12.3246C6.53057 12.578 6.26182 12.8458 5.979 13.1199C5.85942 13.2358 5.73652 13.3536 5.61114 13.4738C5.13083 13.9342 4.61399 14.4297 4.10679 14.9859C2.82522 16.3915 1.75073 18.0351 1.75073 20H0.250732C0.250732 17.4649 1.63915 15.466 2.99837 13.9753C3.54321 13.3777 4.1067 12.8378 4.58992 12.3747C4.71051 12.2591 4.82609 12.1484 4.93514 12.0427C5.21417 11.7723 5.447 11.5388 5.62907 11.3324C5.81674 11.1196 5.91575 10.9737 5.95923 10.8811C6.65832 9.39256 6.01679 8.07684 4.87477 6.40761C4.74105 6.21216 4.59978 6.01083 4.45528 5.80488C4.01708 5.18039 3.54905 4.51338 3.17139 3.83904C2.66035 2.92654 2.25653 1.90718 2.25653 0.775566V0H3.75653Z" fill="#9E9E9E"/>
<path d="M7.66646 1.16086C7.8886 1.32667 8.34835 1.46786 9.23099 1.16309C11.669 0.321243 13.8453 1.2106 15.3558 2.7923C16.8466 4.35343 17.7493 6.63451 17.7493 8.8C17.7493 13.0453 14.8997 16.75 11.0902 16.75H10.0254C8.89057 16.75 7.63995 17.0901 6.69363 17.6946C5.74881 18.2981 5.20386 19.092 5.20386 20H3.70386C3.70386 18.408 4.67836 17.2019 5.88616 16.4304C7.09246 15.6599 8.62762 15.25 10.0254 15.25H11.0902C13.8077 15.25 16.2493 12.5076 16.2493 8.8C16.2493 7.01459 15.4914 5.10617 14.271 3.82827C13.0703 2.57095 11.4848 1.97177 9.72057 2.58094C8.56929 2.97848 7.53381 2.93366 6.76918 2.36289C6.01957 1.80333 5.7353 0.888992 5.7353 0H7.2353C7.2353 0.611008 7.42932 0.983835 7.66646 1.16086Z" fill="#9E9E9E"/>
<path d="M10.7786 5.71633C11.5019 5.94075 12.0675 6.50871 12.2832 7.21819L13.7184 6.78183C13.356 5.59004 12.4148 4.65343 11.223 4.28369L10.7786 5.71633Z" fill="#9E9E9E"/>
</svg>
