<svg width="22" height="20" viewBox="0 0 22 20" fill="none" xmlns="http://www.w3.org/2000/svg">
<path fill-rule="evenodd" clip-rule="evenodd" d="M10.2499 1C10.2499 0.585786 10.5857 0.25 10.9999 0.25C11.4142 0.25 11.7499 0.585786 11.7499 1V3.26528L12.5046 3.76837C12.5386 3.67336 12.5766 3.58096 12.6188 3.49166C12.7792 3.15262 13.0126 2.83492 13.3466 2.60284C13.6864 2.3667 14.0865 2.25 14.5234 2.25C16.3868 2.25 18.2054 3.62206 19.5136 5.65694C20.844 7.7265 21.75 10.62 21.75 14C21.75 16.4321 20.9318 17.9197 19.8453 18.7764C18.7942 19.6052 17.6097 19.75 17.0144 19.75C15.8144 19.75 14.5948 19.4786 13.6787 18.6054C12.7563 17.7262 12.2788 16.3688 12.2788 14.5L12.2788 14.4985L12.2788 14.4959L12.2788 14.4876L12.2791 14.4592C12.2793 14.435 12.2799 14.4006 12.2809 14.3569C12.283 14.2696 12.2872 14.145 12.2954 13.991C12.3118 13.6838 12.3445 13.2563 12.4101 12.7729C12.5229 11.9421 12.7417 10.8736 13.1873 9.96885C12.709 8.85404 12.3028 7.21293 12.2548 5.77442C12.2507 5.65074 12.2491 5.52628 12.2505 5.40179L10.9999 4.56805L9.74947 5.4017C9.75095 5.52615 9.7494 5.65058 9.74531 5.77423C9.6977 7.21272 9.29159 8.85404 8.81208 9.96927C9.25741 10.874 9.4762 11.9422 9.58895 12.7729C9.65455 13.2563 9.68726 13.6838 9.70364 13.991C9.71184 14.145 9.71599 14.2696 9.71809 14.3569C9.71914 14.4006 9.71968 14.435 9.71996 14.4592L9.72021 14.4876L9.72024 14.4959L9.72025 14.4985L9.72025 14.5C9.72025 16.3688 9.24283 17.7261 8.32054 18.6054C7.40449 19.4786 6.18499 19.75 4.98512 19.75C4.38989 19.75 3.20546 19.6052 2.15452 18.7764C1.06813 17.9196 0.25 16.4321 0.25 14C0.25 10.62 1.15595 7.72654 2.48619 5.65697C3.79412 3.62211 5.61254 2.25 7.47583 2.25C7.91267 2.25 8.31274 2.36671 8.65257 2.60279C8.98655 2.83482 9.22002 3.15245 9.38055 3.49145C9.42289 3.58086 9.46095 3.6734 9.49503 3.76855L10.2499 3.26528V1ZM7.72586 8.58559C7.59841 8.48977 7.46139 8.40359 7.31407 8.32967C6.94386 8.14389 6.49313 8.2934 6.30735 8.66362C6.12157 9.03383 6.27109 9.48455 6.6413 9.67033C6.88447 9.79236 7.11711 10.0231 7.32994 10.3798C7.74826 11.0807 7.98158 12.0832 8.10257 12.9747C8.16149 13.4087 8.19102 13.7944 8.20576 14.0709C8.21311 14.2088 8.21674 14.3187 8.21852 14.393C8.21942 14.4301 8.21985 14.4582 8.22006 14.4763L8.22023 14.496L8.22025 14.5C8.22025 16.1312 7.80557 17.0239 7.28553 17.5196C6.75925 18.0214 5.98618 18.25 4.98512 18.25C4.58408 18.25 3.77594 18.1448 3.08339 17.5986C2.42629 17.0804 1.75 16.0679 1.75 14C1.75 10.88 2.58754 8.27346 3.74801 6.46803C4.93078 4.62789 6.35027 3.75 7.47583 3.75C7.63675 3.75 7.73176 3.78954 7.79675 3.83469C7.86758 3.8839 7.94866 3.97248 8.02487 4.13341C8.18639 4.4745 8.26941 5.02108 8.24613 5.72462C8.21492 6.66756 8.00025 7.7232 7.72586 8.58559ZM14.2741 8.58508C14.4013 8.48945 14.5382 8.40345 14.6852 8.32965C15.0555 8.14389 15.5062 8.29343 15.6919 8.66365C15.8777 9.03387 15.7282 9.48459 15.3579 9.67035C15.1147 9.79239 14.882 10.0232 14.6692 10.3798C14.2508 11.0807 14.0175 12.0832 13.8965 12.9747C13.8375 13.4088 13.808 13.7944 13.7933 14.0709C13.7859 14.2088 13.7823 14.3187 13.7805 14.393C13.7796 14.4301 13.7792 14.4582 13.779 14.4763L13.7788 14.496L13.7788 14.5C13.7788 16.1312 14.1935 17.0238 14.7136 17.5196C15.24 18.0213 16.0132 18.25 17.0144 18.25C17.4155 18.25 18.2238 18.1448 18.9165 17.5986C19.5737 17.0803 20.25 16.0679 20.25 14C20.25 10.88 19.4124 8.2735 18.2518 6.46806C17.0689 4.62794 15.6492 3.75 14.5234 3.75C14.3624 3.75 14.2674 3.78955 14.2026 3.83464C14.1318 3.88379 14.0508 3.97231 13.9747 4.13319C13.8133 4.47425 13.7305 5.02081 13.754 5.72443C13.7854 6.66711 14 7.72257 14.2741 8.58508Z" fill="#9E9E9E"/>
</svg>
