<svg width="20" height="22" viewBox="0 0 20 22" fill="none" xmlns="http://www.w3.org/2000/svg">
<path fill-rule="evenodd" clip-rule="evenodd" d="M0.75 7C0.75 10.198 3.15183 12.8349 6.25 13.2055V15.75C6.25 18.7876 8.71243 21.25 11.75 21.25C14.7876 21.25 17.25 18.7876 17.25 15.75V15.1465C18.4043 14.82 19.25 13.7588 19.25 12.5C19.25 10.9812 18.0188 9.75 16.5 9.75C14.9812 9.75 13.75 10.9812 13.75 12.5C13.75 13.7588 14.5957 14.82 15.75 15.1465V15.75C15.75 17.9591 13.9591 19.75 11.75 19.75C9.54086 19.75 7.75 17.9591 7.75 15.75V13.2055C10.8482 12.8349 13.25 10.198 13.25 7V3.5C13.25 2.5335 12.4665 1.75 11.5 1.75H10.25V1.5C10.25 1.08579 9.91421 0.75 9.5 0.75C9.08579 0.75 8.75 1.08579 8.75 1.5V3.5C8.75 3.91421 9.08579 4.25 9.5 4.25C9.91421 4.25 10.25 3.91421 10.25 3.5V3.25H11.5C11.6381 3.25 11.75 3.36193 11.75 3.5V7C11.75 9.62335 9.62335 11.75 7 11.75C4.37665 11.75 2.25 9.62335 2.25 7V3.5C2.25 3.36193 2.36193 3.25 2.5 3.25H3.75V3.5C3.75 3.91421 4.08579 4.25 4.5 4.25C4.91421 4.25 5.25 3.91421 5.25 3.5V1.5C5.25 1.08579 4.91421 0.75 4.5 0.75C4.08579 0.75 3.75 1.08579 3.75 1.5V1.75H2.5C1.5335 1.75 0.75 2.5335 0.75 3.5V7ZM16.5 13.75C15.8096 13.75 15.25 13.1904 15.25 12.5C15.25 11.8096 15.8096 11.25 16.5 11.25C17.1904 11.25 17.75 11.8096 17.75 12.5C17.75 13.1904 17.1904 13.75 16.5 13.75Z" fill="#316599"/>
</svg>
