<svg width="22" height="18" viewBox="0 0 22 18" fill="none" xmlns="http://www.w3.org/2000/svg">
<path fill-rule="evenodd" clip-rule="evenodd" d="M10.5 4.25C9.25736 4.25 8.25 5.25736 8.25 6.5C8.25 7.74264 9.25736 8.75 10.5 8.75C11.7426 8.75 12.75 7.74264 12.75 6.5C12.75 5.25736 11.7426 4.25 10.5 4.25ZM9.75 6.5C9.75 6.08579 10.0858 5.75 10.5 5.75C10.9142 5.75 11.25 6.08579 11.25 6.5C11.25 6.91421 10.9142 7.25 10.5 7.25C10.0858 7.25 9.75 6.91421 9.75 6.5Z" fill="#316599"/>
<path fill-rule="evenodd" clip-rule="evenodd" d="M7.94425 0.25H9.05575C10.6583 0.249983 11.9373 0.249969 12.9404 0.38483C13.9767 0.524152 14.8301 0.819657 15.5052 1.4948C16.1803 2.16994 16.4758 3.02335 16.6152 4.05961C16.6299 4.16937 16.6431 4.28243 16.6548 4.39886C17.2507 3.91834 17.7699 3.52349 18.2246 3.24876C18.9087 2.83551 19.6936 2.54159 20.4829 2.93287C21.2616 3.31888 21.5231 4.11573 21.6364 4.91652C21.7501 5.72045 21.75 6.81122 21.75 8.15457V9.84542C21.75 11.1888 21.7501 12.2796 21.6364 13.0835C21.5231 13.8843 21.2616 14.6812 20.4829 15.0672C19.6936 15.4584 18.9087 15.1645 18.2246 14.7513C17.7699 14.4765 17.2507 14.0817 16.6548 13.6012C16.6431 13.7176 16.6299 13.8306 16.6152 13.9404C16.4758 14.9767 16.1803 15.8301 15.5052 16.5052C14.8301 17.1803 13.9767 17.4758 12.9404 17.6152C11.9373 17.75 10.6583 17.75 9.05574 17.75H7.94426C6.34166 17.75 5.0627 17.75 4.05961 17.6152C3.02335 17.4758 2.16994 17.1803 1.4948 16.5052C0.819657 15.8301 0.524152 14.9767 0.38483 13.9404C0.249969 12.9373 0.249983 11.6583 0.25 10.0558V7.94425C0.249983 6.34167 0.249969 5.0627 0.38483 4.05961C0.524152 3.02335 0.819657 2.16994 1.4948 1.4948C2.16994 0.819657 3.02335 0.524152 4.05961 0.38483C5.0627 0.249969 6.34166 0.249983 7.94425 0.25ZM16.75 7.94426C16.75 7.33939 16.75 6.78063 16.7428 6.26539C17.7458 5.43824 18.4491 4.86566 19.0003 4.53266C19.5867 4.17841 19.7558 4.24662 19.8167 4.27681C19.8882 4.31226 20.0519 4.42477 20.1511 5.12661C20.2482 5.81267 20.25 6.79609 20.25 8.2181V9.78193C20.25 11.2039 20.2482 12.1874 20.1511 12.8734C20.0519 13.5753 19.8882 13.6878 19.8167 13.7232C19.7558 13.7534 19.5867 13.8216 19.0003 13.4674C18.4491 13.1344 17.7458 12.5618 16.7428 11.7346C16.75 11.2194 16.75 10.6606 16.75 10.0557V7.94426ZM4.25949 1.87145C3.38955 1.98841 2.90544 2.20547 2.55546 2.55546C2.20547 2.90544 1.98841 3.38955 1.87145 4.25949C1.75159 5.15099 1.75 6.32888 1.75 8V10C1.75 11.6711 1.75159 12.849 1.87145 13.7405C1.98841 14.6104 2.20547 15.0946 2.55546 15.4445C2.90544 15.7945 3.38955 16.0116 4.25949 16.1285C5.15099 16.2484 6.32888 16.25 8 16.25H9C10.6711 16.25 11.849 16.2484 12.7405 16.1285C13.6104 16.0116 14.0946 15.7945 14.4445 15.4445C14.7945 15.0946 15.0116 14.6104 15.1285 13.7405C15.2484 12.849 15.25 11.6711 15.25 10V8C15.25 6.32888 15.2484 5.15099 15.1285 4.25949C15.0116 3.38955 14.7945 2.90544 14.4445 2.55546C14.0946 2.20547 13.6104 1.98841 12.7405 1.87145C11.849 1.75159 10.6711 1.75 9 1.75H8C6.32888 1.75 5.15099 1.75159 4.25949 1.87145Z" fill="#316599"/>
</svg>
