<svg width="24" height="24" viewBox="0 0 24 24" fill="none" xmlns="http://www.w3.org/2000/svg">
<path d="M14.0643 4.02903C13.674 3.91639 13.2663 4.1415 13.1536 4.53184C13.041 4.92218 13.2661 5.32992 13.6564 5.44257C16.0156 6.12337 17.8765 7.98422 18.5574 10.3433C18.6701 10.7336 19.0778 10.9587 19.4682 10.8461C19.8585 10.7334 20.0836 10.3257 19.971 9.93532C19.1499 7.09055 16.9092 4.84999 14.0643 4.02903Z" fill="#51A8FF"/>
<path d="M13.6668 7.61306C13.2929 7.45427 12.861 7.62868 12.7022 8.00263C12.5434 8.37657 12.7178 8.80844 13.0917 8.96724C13.9633 9.33734 14.6626 10.0367 15.0328 10.9082C15.1916 11.2821 15.6234 11.4566 15.9974 11.2978C16.3713 11.139 16.5457 10.7071 16.3869 10.3331C15.8678 9.11078 14.8892 8.13214 13.6668 7.61306Z" fill="#51A8FF"/>
<path d="M7.94704 4.94702C7.74078 4.57699 7.4088 4.29691 6.99194 4.21076C6.57072 4.1237 6.14734 4.25212 5.79937 4.53572C4.53679 5.56477 3.73288 7.21348 4.08178 8.94306C4.29625 10.0062 4.65355 11.0552 5.38116 12.3239C6.8414 14.8701 9.12701 17.1569 11.6762 18.6189C12.9449 19.3465 13.9939 19.7038 15.057 19.9182C16.7866 20.2671 18.4353 19.4632 19.4644 18.2006C19.748 17.8527 19.8764 17.4293 19.7894 17.0081C19.7032 16.5912 19.4231 16.2593 19.0531 16.053L17.8742 15.3959C17.4401 15.1539 17.0747 14.9502 16.7572 14.8172C16.4202 14.6761 16.088 14.5923 15.7207 14.6307C15.3533 14.669 15.0455 14.8195 14.7449 15.0271C14.4616 15.2228 14.1461 15.4974 13.7712 15.8238L12.6617 16.7897C12.4629 16.9628 12.3635 17.0493 12.2393 17.0573C12.115 17.0652 12.0089 16.9942 11.7967 16.8524C9.98624 15.6423 8.35674 14.0123 7.1477 12.2033C7.00584 11.9911 6.93491 11.885 6.94282 11.7607C6.95073 11.6365 7.03727 11.5371 7.21035 11.3383L8.17622 10.2288C8.50261 9.85396 8.77729 9.53848 8.97297 9.25514C9.18054 8.95458 9.33108 8.64677 9.36939 8.27944C9.4077 7.9121 9.3239 7.57986 9.18281 7.24294C9.0498 6.92532 8.84612 6.55996 8.6041 6.1258L7.94704 4.94702Z" fill="#51A8FF"/>
</svg>
