<svg width="24" height="25" viewBox="0 0 24 25" fill="none" xmlns="http://www.w3.org/2000/svg">
<path d="M2 9.15295C2 7.6608 3.20963 6.45117 4.70178 6.45117C5.47706 6.45117 6.16537 5.95507 6.41053 5.21957L6.5 4.95117C6.54219 4.8246 6.56329 4.76131 6.58586 4.70517C6.87405 3.98829 7.54939 3.50154 8.32061 3.45483C8.38101 3.45117 8.44772 3.45117 8.58114 3.45117H15.4189C15.5523 3.45117 15.619 3.45117 15.6794 3.45483C16.4506 3.50154 17.126 3.98829 17.4141 4.70517C17.4367 4.76131 17.4578 4.8246 17.5 4.95117L17.5895 5.21957C17.8346 5.95507 18.5229 6.45117 19.2982 6.45117C20.7904 6.45117 22 7.6608 22 9.15295V17.6512C22 19.3314 22 20.1714 21.673 20.8132C21.3854 21.3777 20.9265 21.8366 20.362 22.1242C19.7202 22.4512 18.8802 22.4512 17.2 22.4512H6.8C5.11984 22.4512 4.27976 22.4512 3.63803 22.1242C3.07354 21.8366 2.6146 21.3777 2.32698 20.8132C2 20.1714 2 19.3314 2 17.6512V9.15295Z" stroke="#0C6DBB" stroke-width="2" stroke-linecap="round" stroke-linejoin="round"/>
<path d="M12 17.9512C14.4853 17.9512 16.5 15.9365 16.5 13.4512C16.5 10.9659 14.4853 8.95117 12 8.95117C9.51472 8.95117 7.5 10.9659 7.5 13.4512C7.5 15.9365 9.51472 17.9512 12 17.9512Z" stroke="#0C6DBB" stroke-width="2" stroke-linecap="round" stroke-linejoin="round"/>
</svg>
