<svg width="22" height="20" viewBox="0 0 22 20" fill="none" xmlns="http://www.w3.org/2000/svg">
<path d="M11.2055 1.70846L11.2498 1.74382L11.2942 1.70847C11.6636 1.41641 12.2033 1.05091 12.8862 0.758764C14.2719 0.165929 16.2301 -0.112409 18.4621 1.08157C21.2446 2.57004 22.6102 6.13312 21.7364 9.80263C20.8524 13.5144 17.7116 17.3369 11.5128 19.6518L11.2498 19.75L10.9868 19.6518C4.78805 17.3369 1.64718 13.5144 0.763209 9.80263C-0.110703 6.13312 1.25488 2.57003 4.0374 1.08156C6.26942 -0.11242 8.22763 0.165925 9.61339 0.758757C10.2963 1.0509 10.836 1.4164 11.2055 1.70846Z" fill="#316599"/>
</svg>
