<svg width="230" height="190" viewBox="0 0 230 190" fill="none" xmlns="http://www.w3.org/2000/svg">
<path d="M105.42 176C154.021 176 193.42 136.601 193.42 88C193.42 39.3989 154.021 0 105.42 0C56.8186 0 17.4197 39.3989 17.4197 88C17.4197 136.601 56.8186 176 105.42 176Z" fill="url(#paint0_linear_1115_1483)"/>
<g filter="url(#filter0_d_1115_1483)">
<rect x="60.6863" y="25.3413" width="91.3272" height="113.688" rx="16" fill="#FAFAFA"/>
</g>
<rect x="68.7529" y="40.0081" width="50" height="3.34667" rx="1.67333" fill="#51A8FF"/>
<rect x="68.7529" y="61.3547" width="73.3333" height="3.34667" rx="1.67333" fill="#9E9E9E"/>
<rect x="68.7529" y="82.7014" width="73.3333" height="3.34667" rx="1.67333" fill="#9E9E9E"/>
<rect x="68.7529" y="104.048" width="73.3333" height="3.34667" rx="1.67333" fill="#9E9E9E"/>
<rect x="68.7529" y="125.395" width="73.3333" height="3.34667" rx="1.67333" fill="#9E9E9E"/>
<g filter="url(#filter1_d_1115_1483)">
<path d="M206.729 12.7776H162.67C160.617 12.7776 158.953 14.5292 158.953 16.6898V38.4839C158.953 40.6445 160.617 42.3961 162.67 42.3961H206.729C208.782 42.3961 210.447 40.6445 210.447 38.4839V16.6898C210.447 14.5292 208.782 12.7776 206.729 12.7776Z" fill="white"/>
</g>
<path d="M169.953 32.2666C172.383 32.2666 174.353 30.2966 174.353 27.8666C174.353 25.4365 172.383 23.4666 169.953 23.4666C167.523 23.4666 165.553 25.4365 165.553 27.8666C165.553 30.2966 167.523 32.2666 169.953 32.2666Z" fill="#142A40"/>
<rect x="180.22" y="23.4666" width="23.4667" height="8.8" rx="4.4" fill="#51A8FF"/>
<path d="M131.166 52.4797C156.479 52.4797 177 72.9998 177 98.3127C177 108.195 173.872 117.346 168.553 124.831L197.354 152.324L186.53 164.883L156.682 136.39C149.388 141.287 140.612 144.147 131.166 144.147C105.853 144.147 85.3333 123.626 85.3333 98.3127C85.3334 73 105.853 52.4799 131.166 52.4797ZM131.457 59.51C110.027 59.51 92.6538 76.8826 92.6536 98.3127C92.6536 119.743 110.027 137.116 131.457 137.116C152.887 137.116 170.26 119.743 170.26 98.3127C170.26 76.8827 152.887 59.5102 131.457 59.51Z" fill="#51A8FF"/>
<path d="M131.453 137.867C153.526 137.867 171.42 120.137 171.42 98.2667C171.42 76.3963 153.526 58.6667 131.453 58.6667C109.38 58.6667 91.4863 76.3963 91.4863 98.2667C91.4863 120.137 109.38 137.867 131.453 137.867Z" fill="white" fill-opacity="0.3"/>
<path d="M138.363 98.2667L148.035 88.6322C148.941 87.6791 149.438 86.4124 149.419 85.1012C149.4 83.79 148.868 82.5378 147.935 81.6106C147.002 80.6833 145.742 80.1542 144.423 80.1357C143.104 80.1171 141.829 80.6105 140.87 81.5111L131.177 91.1456L121.505 81.5111C121.04 81.0215 120.48 80.6297 119.86 80.3588C119.239 80.0879 118.571 79.9434 117.893 79.9339C117.215 79.9243 116.543 80.0499 115.915 80.3033C115.287 80.5566 114.717 80.9325 114.237 81.4088C113.758 81.885 113.38 82.452 113.125 83.076C112.87 83.7001 112.744 84.3687 112.753 85.0421C112.763 85.7156 112.908 86.3803 113.181 86.9969C113.454 87.6136 113.848 88.1696 114.34 88.6322L124.028 98.2667L114.34 107.901C113.848 108.364 113.454 108.92 113.181 109.536C112.908 110.153 112.763 110.818 112.753 111.491C112.744 112.165 112.87 112.833 113.125 113.457C113.38 114.081 113.758 114.648 114.237 115.125C114.717 115.601 115.287 115.977 115.915 116.23C116.543 116.483 117.215 116.609 117.893 116.6C118.571 116.59 119.239 116.445 119.86 116.175C120.48 115.904 121.04 115.512 121.505 115.022L131.199 105.388L140.892 115.022C141.86 115.87 143.117 116.318 144.406 116.277C145.696 116.235 146.92 115.707 147.831 114.799C148.742 113.891 149.27 112.672 149.308 111.39C149.346 110.108 148.891 108.861 148.035 107.901L138.363 98.2667Z" fill="#316599"/>
<path d="M186.527 164.885L197.351 152.326L198.982 153.882C200.564 155.392 201.511 157.502 201.615 159.747C201.719 161.992 200.971 164.188 199.536 165.853C198.101 167.517 196.097 168.514 193.964 168.624C191.831 168.733 189.744 167.946 188.162 166.436L186.531 164.88L186.527 164.885Z" fill="#316599"/>
<path fill-rule="evenodd" clip-rule="evenodd" d="M36.7169 45.5926C36.7031 44.5468 36.5719 43.492 36.3095 42.4301C35.3894 38.7032 31.2843 36.3106 26.9151 35.748C22.5476 35.1855 18.0058 36.4656 16.2554 39.7075C15.2541 41.561 15.116 43.1585 15.5251 44.5053C15.9325 45.845 16.8992 46.9556 18.2112 47.8211C21.8691 50.2317 28.2754 50.724 31.198 49.7161C32.5497 49.2491 33.8703 48.6866 35.1563 48.0429C34.4209 52.2566 31.6813 56.2485 28.0251 59.8455C20.079 67.6634 7.74822 73.5972 1.03299 75.7788C0.672199 75.896 0.471933 76.2963 0.584141 76.6731C0.69635 77.05 1.07958 77.2609 1.44037 77.1437C8.28852 74.9188 20.8593 68.8588 28.9625 60.8859C33.1487 56.7677 36.1317 52.1322 36.641 47.2586C46.1044 41.9775 53.8761 32.3962 60.5206 24.3331C60.7674 24.0356 60.7347 23.583 60.4481 23.3252C60.1615 23.0692 59.7299 23.1016 59.483 23.4009C53.1096 31.1341 45.7125 40.3331 36.7169 45.5926ZM35.3411 46.3589C35.3929 45.1833 35.2824 43.9897 34.9837 42.7853C34.1879 39.5596 30.5299 37.6521 26.7476 37.1652C24.4292 36.8677 22.0453 37.113 20.1757 37.9856C19.0001 38.5337 18.0316 39.3289 17.4482 40.4107C16.6817 41.8297 16.5159 43.0431 16.8301 44.0726C17.1443 45.1094 17.9247 45.9423 18.9415 46.6113C22.2749 48.8092 28.108 49.2762 30.7682 48.3584C32.3373 47.8175 33.86 47.1432 35.3411 46.3589Z" fill="#51A8FF"/>
<circle cx="204.42" cy="113.667" r="4.4" fill="#E3E3E3"/>
<path fill-rule="evenodd" clip-rule="evenodd" d="M38.2349 144.022C39.0201 143.728 39.8464 143.336 40.4836 142.77C41.2404 142.097 41.5482 141.23 41.7549 140.318C42.0202 139.146 42.1263 137.897 42.448 136.723C42.5672 136.287 42.7964 136.122 42.8948 136.049C43.1435 135.864 43.3948 135.815 43.6313 135.833C43.9115 135.855 44.2965 135.966 44.5497 136.461C44.5858 136.532 44.6327 136.639 44.6643 136.787C44.6873 136.895 44.7022 137.234 44.7265 137.374C44.7875 137.718 44.8385 138.061 44.8863 138.407C45.0456 139.558 45.1372 140.535 45.6404 141.592C46.3232 143.028 47.0073 143.906 47.9352 144.295C48.8323 144.671 49.905 144.6 51.2756 144.305C51.406 144.272 51.535 144.244 51.6628 144.22C52.267 144.109 52.8447 144.527 52.9634 145.16C53.082 145.793 52.698 146.41 52.0992 146.549C51.9742 146.578 51.851 146.606 51.7291 146.631C49.877 147.114 47.733 148.836 46.487 150.344C46.103 150.808 45.5407 152.108 44.9671 152.938C44.5438 153.549 44.0681 153.953 43.6687 154.095C43.4011 154.191 43.1755 154.176 42.9891 154.128C42.7184 154.057 42.4936 153.903 42.3212 153.658C42.2274 153.523 42.1403 153.343 42.0987 153.113C42.0789 153.003 42.0766 152.722 42.0771 152.594C41.9602 152.171 41.8171 151.758 41.7129 151.331C41.4642 150.312 40.9764 149.667 40.397 148.815C39.855 148.018 39.2728 147.517 38.4195 147.117C38.3084 147.088 37.4126 146.858 37.0963 146.725C36.6342 146.531 36.4139 146.205 36.3341 146.03C36.1982 145.733 36.1842 145.473 36.2113 145.257C36.2515 144.937 36.3878 144.663 36.6297 144.443C36.7795 144.305 37.0033 144.172 37.303 144.107C37.5345 144.056 38.1487 144.026 38.2349 144.022ZM43.49 142.362C43.5316 142.459 43.5758 142.557 43.6227 142.656C44.6228 144.758 45.741 145.931 47.1003 146.501L47.1459 146.519C46.2365 147.23 45.4134 148.024 44.7843 148.785C44.5253 149.099 44.1823 149.75 43.8118 150.418C43.4752 149.266 42.9246 148.452 42.2323 147.433C41.7034 146.656 41.1492 146.071 40.4683 145.594C40.9967 145.308 41.5008 144.974 41.9399 144.584C42.671 143.933 43.1543 143.18 43.49 142.362Z" fill="#CCC6D9"/>
<defs>
<filter id="filter0_d_1115_1483" x="30.6863" y="15.3413" width="151.327" height="173.688" filterUnits="userSpaceOnUse" color-interpolation-filters="sRGB">
<feFlood flood-opacity="0" result="BackgroundImageFix"/>
<feColorMatrix in="SourceAlpha" type="matrix" values="0 0 0 0 0 0 0 0 0 0 0 0 0 0 0 0 0 0 127 0" result="hardAlpha"/>
<feOffset dy="20"/>
<feGaussianBlur stdDeviation="15"/>
<feComposite in2="hardAlpha" operator="out"/>
<feColorMatrix type="matrix" values="0 0 0 0 0.570833 0 0 0 0 0.570833 0 0 0 0 0.570833 0 0 0 0.19 0"/>
<feBlend mode="normal" in2="BackgroundImageFix" result="effect1_dropShadow_1115_1483"/>
<feBlend mode="normal" in="SourceGraphic" in2="effect1_dropShadow_1115_1483" result="shape"/>
</filter>
<filter id="filter1_d_1115_1483" x="151.953" y="3.77759" width="77.4939" height="55.6184" filterUnits="userSpaceOnUse" color-interpolation-filters="sRGB">
<feFlood flood-opacity="0" result="BackgroundImageFix"/>
<feColorMatrix in="SourceAlpha" type="matrix" values="0 0 0 0 0 0 0 0 0 0 0 0 0 0 0 0 0 0 127 0" result="hardAlpha"/>
<feOffset dx="6" dy="4"/>
<feGaussianBlur stdDeviation="6.5"/>
<feComposite in2="hardAlpha" operator="out"/>
<feColorMatrix type="matrix" values="0 0 0 0 0.104618 0 0 0 0 0.465612 0 0 0 0 0.545833 0 0 0 0.09 0"/>
<feBlend mode="normal" in2="BackgroundImageFix" result="effect1_dropShadow_1115_1483"/>
<feBlend mode="normal" in="SourceGraphic" in2="effect1_dropShadow_1115_1483" result="shape"/>
</filter>
<linearGradient id="paint0_linear_1115_1483" x1="104.741" y1="-28.655" x2="106.544" y2="280.388" gradientUnits="userSpaceOnUse">
<stop stop-color="#F2F2F2"/>
<stop offset="1" stop-color="#EFEFEF"/>
</linearGradient>
</defs>
</svg>
