<svg width="22" height="20" viewBox="0 0 22 20" fill="none" xmlns="http://www.w3.org/2000/svg">
<path fill-rule="evenodd" clip-rule="evenodd" d="M11.25 1.72232C11.2355 1.71062 11.2207 1.6988 11.2057 1.68687C10.8362 1.39405 10.2965 1.0276 9.6136 0.734693C8.22785 0.140315 6.26963 -0.138756 4.03762 1.05834C1.25509 2.55069 -0.11049 6.12307 0.763422 9.80215C1.6474 13.5236 4.78826 17.356 10.9871 19.677L11.25 19.7754L11.513 19.677C17.7118 17.356 20.8527 13.5236 21.7366 9.80214C22.6105 6.12307 21.2448 2.55069 18.4623 1.05835C16.2303 -0.138744 14.2721 0.140319 12.8864 0.7347C12.2035 1.0276 11.6638 1.39406 11.2944 1.68688C11.2793 1.69881 11.2645 1.71063 11.25 1.72232ZM9.02232 2.11324C7.97702 1.66489 6.50627 1.43645 4.74658 2.38022C2.69439 3.48087 1.46903 6.28215 2.22282 9.45549C2.95528 12.5391 5.59057 15.9794 11.25 18.172C16.9095 15.9794 19.5448 12.5391 20.2772 9.4555C21.0309 6.28217 19.8055 3.48088 17.7534 2.38023C15.9937 1.43646 14.5229 1.6649 13.4777 2.11324C12.9451 2.34169 12.5188 2.63041 12.2261 2.8624C12.0805 2.97782 11.9701 3.07749 11.8984 3.14582C11.8626 3.17993 11.8366 3.20606 11.8209 3.22222L11.8052 3.23866C11.8045 3.23935 11.804 3.23987 11.8037 3.24023C11.8035 3.24043 11.8034 3.24057 11.8033 3.24066C11.8033 3.24067 11.8033 3.24068 11.8033 3.24069L11.8032 3.24076L11.2501 3.84985L10.6969 3.24077C10.6969 3.24078 10.6967 3.2406 10.6964 3.24023C10.6961 3.23988 10.6956 3.23936 10.6949 3.23867L10.6792 3.22223C10.6635 3.20607 10.6375 3.17995 10.6017 3.14583C10.53 3.0775 10.4196 2.97783 10.274 2.86241C9.98125 2.63041 9.55495 2.34169 9.02232 2.11324Z" fill="#9E9E9E"/>
</svg>
