<svg width="20" height="20" viewBox="0 0 20 20" fill="none" xmlns="http://www.w3.org/2000/svg">
<path fill-rule="evenodd" clip-rule="evenodd" d="M9.99992 19.1666C15.0625 19.1666 19.1666 15.0625 19.1666 9.99992C19.1666 4.93731 15.0625 0.833252 9.99992 0.833252C4.93731 0.833252 0.833252 4.93731 0.833252 9.99992C0.833252 15.0625 4.93731 19.1666 9.99992 19.1666Z" fill="white"/>
<path fill-rule="evenodd" clip-rule="evenodd" d="M9.99992 19.1666C15.0625 19.1666 19.1666 15.0625 19.1666 9.99992C19.1666 4.93731 15.0625 0.833252 9.99992 0.833252C4.93731 0.833252 0.833252 4.93731 0.833252 9.99992C0.833252 15.0625 4.93731 19.1666 9.99992 19.1666ZM5.8751 9.26768C5.54966 9.59312 5.54966 10.1208 5.8751 10.4462L8.23212 12.8032C8.55756 13.1287 9.0852 13.1287 9.41063 12.8032L14.1247 8.08917C14.4501 7.76374 14.4501 7.2361 14.1247 6.91066C13.7992 6.58523 13.2716 6.58523 12.9462 6.91066L8.82138 11.0355L7.05361 9.26768C6.72817 8.94225 6.20054 8.94225 5.8751 9.26768Z" fill="#067647"/>
</svg>
