<svg width="120" height="170" viewBox="0 0 120 170" fill="none" xmlns="http://www.w3.org/2000/svg">
<path d="M90.38 166.98C91.97 168.57 94.05 169.36 96.13 169.36C98.21 169.36 100.3 168.57 101.89 166.98L129.38 139.49C132.55 136.31 132.55 131.16 129.38 127.98C126.2 124.8 121.05 124.8 117.87 127.98L96.13 149.72L27.38 80.96C20.22 73.8 16.28 64.29 16.28 54.17C16.28 44.05 20.22 34.53 27.38 27.37C34.54 20.22 44.05 16.28 54.17 16.28C64.29 16.28 73.81 20.22 80.97 27.37L90.38 36.78C91.9 38.31 93.97 39.17 96.13 39.17C98.29 39.17 100.36 38.31 101.89 36.78L111.29 27.37C118.45 20.22 127.97 16.28 138.09 16.28C148.21 16.28 157.73 20.22 164.88 27.37C172.03 34.52 175.98 44.04 175.98 54.17C175.98 64.3 172.04 73.8 164.88 80.96L157.93 87.91C155.18 86.67 152.13 85.99 148.92 85.99C136.67 85.99 126.71 95.95 126.71 108.2C126.71 120.45 136.67 130.4 148.92 130.4C161.17 130.4 171.12 120.44 171.12 108.2C171.12 105.12 170.49 102.19 169.35 99.52L176.39 92.47C186.62 82.24 192.26 68.64 192.26 54.17C192.26 39.7 186.62 26.09 176.39 15.86C166.16 5.63 152.56 0 138.09 0C123.62 0 110.01 5.63 99.78 15.86L96.13 19.52L92.48 15.86C82.24 5.63 68.64 0 54.17 0C39.7 0 26.11 5.63 15.87 15.86C5.64001 26.09 0 39.7 0 54.17C0 68.64 5.64001 82.24 15.87 92.47L90.38 166.98ZM148.92 119.83C142.5 119.83 137.28 114.61 137.28 108.2C137.28 101.79 142.5 96.56 148.92 96.56C149.63 96.56 150.33 96.62 151.01 96.75C155.84 97.63 159.64 101.51 160.41 106.39C160.5 106.98 160.55 107.58 160.55 108.2C160.55 114.61 155.33 119.83 148.92 119.83Z" fill="#FAFAFA"/>
<path d="M148.92 102.27C147.08 102.27 145.43 103.11 144.34 104.43C143.86 105.01 143.48 105.69 143.25 106.44C143.07 106.99 142.98 107.58 142.98 108.2C142.98 108.82 143.07 109.41 143.25 109.96C143.48 110.71 143.86 111.39 144.34 111.97C145.43 113.29 147.08 114.13 148.92 114.13C152.19 114.13 154.85 111.47 154.85 108.2C154.85 104.93 152.19 102.27 148.92 102.27Z" fill="#FAFAFA"/>
<path d="M93.81 88.0699C97.01 88.0699 99.86 86.5299 101.67 84.1599H127.77C131.05 84.1599 133.72 81.4999 133.72 78.2099C133.72 74.9199 131.06 72.2599 127.77 72.2599H101.66C99.85 69.8899 97 68.3499 93.8 68.3499C93.34 68.3499 92.89 68.3799 92.45 68.4399L68.69 44.6799C66.37 42.3599 62.6 42.3599 60.28 44.6799C57.96 46.9999 57.96 50.7699 60.28 53.0899L84.04 76.8499C83.98 77.2999 83.95 77.7499 83.95 78.2099C83.95 83.6499 88.38 88.0699 93.81 88.0699Z" fill="#FAFAFA"/>
</svg>
