<svg width="215" height="334" viewBox="0 0 215 334" fill="none" xmlns="http://www.w3.org/2000/svg">
<path d="M178.635 329.306C181.778 332.442 185.889 334 190 334C194.111 334 198.242 332.442 201.385 329.306L255.718 275.092C261.984 268.821 261.984 258.665 255.718 252.393C249.433 246.122 239.254 246.122 232.969 252.393L190 295.267L54.1163 159.664C39.9646 145.543 32.1773 126.788 32.1773 106.83C32.1773 86.8723 39.9646 68.0977 54.1163 53.9772C68.268 39.8765 87.0644 32.1063 107.066 32.1063C127.069 32.1063 145.885 39.8765 160.036 53.9772L178.635 72.535C181.639 75.5523 185.731 77.2484 190 77.2484C194.269 77.2484 198.361 75.5523 201.385 72.535L219.964 53.9772C234.115 39.8765 252.931 32.1063 272.934 32.1063C292.936 32.1063 311.752 39.8765 325.884 53.9772C340.016 68.0779 347.823 86.8526 347.823 106.83C347.823 126.808 340.035 145.543 325.884 159.664L312.147 173.37C306.712 170.925 300.683 169.583 294.339 169.583C270.127 169.583 250.441 189.226 250.441 213.385C250.441 237.543 270.127 257.166 294.339 257.166C318.551 257.166 338.217 237.523 338.217 213.385C338.217 207.31 336.972 201.532 334.719 196.266L348.633 182.363C368.853 162.188 380 135.367 380 106.83C380 78.2936 368.853 51.4529 348.633 31.278C328.414 11.1031 301.533 0 272.934 0C244.334 0 217.434 11.1031 197.214 31.278L190 38.496L182.786 31.278C162.547 11.1031 135.666 0 107.066 0C78.4667 0 51.6062 11.1031 31.3669 31.278C11.1474 51.4529 0 78.2936 0 106.83C0 135.367 11.1474 162.188 31.3669 182.363L178.635 329.306ZM294.339 236.32C281.65 236.32 271.333 226.026 271.333 213.385C271.333 200.743 281.65 190.429 294.339 190.429C295.742 190.429 297.126 190.547 298.47 190.804C308.016 192.539 315.527 200.191 317.049 209.815C317.227 210.979 317.326 212.162 317.326 213.385C317.326 226.026 307.008 236.32 294.339 236.32Z" fill="#EEF7FF"/>
</svg>
