<svg width="22" height="22" viewBox="0 0 22 22" fill="none" xmlns="http://www.w3.org/2000/svg">
<path d="M11.75 9C11.75 8.58579 11.4142 8.25 11 8.25C10.5858 8.25 10.25 8.58579 10.25 9V11.25H8C7.58579 11.25 7.25 11.5858 7.25 12C7.25 12.4142 7.58579 12.75 8 12.75H10.25V15C10.25 15.4142 10.5858 15.75 11 15.75C11.4142 15.75 11.75 15.4142 11.75 15V12.75H14C14.4142 12.75 14.75 12.4142 14.75 12C14.75 11.5858 14.4142 11.25 14 11.25H11.75V9Z" fill="#316599"/>
<path fill-rule="evenodd" clip-rule="evenodd" d="M11 0.25C10.1339 0.25 9.35968 0.526884 8.52381 0.995945C7.7139 1.45043 6.78586 2.12145 5.61887 2.96524L4.10984 4.05632C3.1733 4.73346 2.42528 5.27429 1.86109 5.77487C1.27855 6.29173 0.842739 6.807 0.566298 7.45513C0.289254 8.10469 0.222248 8.77045 0.259413 9.53808C0.295279 10.2789 0.432639 11.1727 0.603927 12.2872L0.919183 14.3387C1.16256 15.9225 1.35635 17.1836 1.64105 18.1662C1.93544 19.1821 2.35016 19.9887 3.0914 20.6052C3.82957 21.2192 4.7089 21.4926 5.78306 21.6231C6.828 21.75 8.14615 21.75 9.8111 21.75H12.1889C13.8539 21.75 15.172 21.75 16.2169 21.6231C17.2911 21.4926 18.1704 21.2192 18.9086 20.6052C19.6499 19.9887 20.0646 19.1821 20.359 18.1662C20.6437 17.1837 20.8374 15.9225 21.0808 14.3387L21.3961 12.2871C21.5674 11.1726 21.7047 10.2789 21.7406 9.53808C21.7778 8.77045 21.7108 8.10469 21.4337 7.45513C21.1573 6.807 20.7215 6.29173 20.1389 5.77487C19.5747 5.2743 18.8267 4.73347 17.8902 4.05633L16.3811 2.96525C15.2142 2.12146 14.2861 1.45043 13.4762 0.995945C12.6403 0.526884 11.8661 0.25 11 0.25ZM6.46043 4.20777C7.67318 3.33092 8.53198 2.7114 9.25787 2.30406C9.96641 1.90645 10.483 1.75 11 1.75C11.517 1.75 12.0336 1.90645 12.7421 2.30406C13.468 2.7114 14.3268 3.33092 15.5396 4.20777L16.9794 5.24884C17.9551 5.95427 18.6418 6.45189 19.1434 6.8969C19.633 7.33129 19.8961 7.6735 20.054 8.04362C20.2112 8.41233 20.2731 8.83 20.2423 9.46554C20.2107 10.119 20.0862 10.9356 19.9073 12.0995L19.6063 14.0585C19.353 15.7066 19.1726 16.8709 18.9182 17.7487C18.6704 18.6038 18.3761 19.0971 17.9494 19.452C17.5197 19.8094 16.9613 20.0217 16.0361 20.134C15.0921 20.2487 13.865 20.25 12.1388 20.25H9.86119C8.13497 20.25 6.90793 20.2487 5.96392 20.134C5.03868 20.0217 4.48034 19.8094 4.0506 19.452C3.62394 19.0971 3.32959 18.6038 3.08178 17.7487C2.82742 16.8709 2.647 15.7066 2.39373 14.0585L2.09269 12.0995C1.91382 10.9356 1.7893 10.119 1.75766 9.46554C1.72689 8.83 1.78878 8.41232 1.94604 8.04362C2.1039 7.6735 2.36702 7.33129 2.85661 6.8969C3.35817 6.45189 4.04492 5.95427 5.02058 5.24884L6.46043 4.20777Z" fill="#316599"/>
</svg>
