<svg width="20" height="14" viewBox="0 0 20 14" fill="none" xmlns="http://www.w3.org/2000/svg">
<path d="M12.4312 13.8188C12.2412 13.8188 12.0512 13.7488 11.9012 13.5988C11.6112 13.3088 11.6112 12.8288 11.9012 12.5388L17.4412 6.99877L11.9012 1.45877C11.6112 1.16877 11.6112 0.688774 11.9012 0.398774C12.1912 0.108774 12.6712 0.108774 12.9612 0.398774L19.0312 6.46877C19.3212 6.75877 19.3212 7.23877 19.0312 7.52877L12.9612 13.5988C12.8112 13.7488 12.6212 13.8188 12.4312 13.8188Z" fill="#FAFAFA"/>
<path d="M18.3312 7.74877H1.50122C1.09122 7.74877 0.751221 7.40877 0.751221 6.99877C0.751221 6.58877 1.09122 6.24877 1.50122 6.24877H18.3312C18.7412 6.24877 19.0812 6.58877 19.0812 6.99877C19.0812 7.40877 18.7412 7.74877 18.3312 7.74877Z" fill="#FAFAFA"/>
</svg>
