<svg width="24" height="24" viewBox="0 0 24 24" fill="none" xmlns="http://www.w3.org/2000/svg">
<path fill-rule="evenodd" clip-rule="evenodd" d="M14.079 0.895752H9.42067C5.02875 0.895752 2.83279 0.895752 1.4684 2.26516C0.104004 3.63456 0.104004 5.83858 0.104004 10.2466V10.8311C0.104004 15.2391 0.104004 17.4431 1.4684 18.8125C2.09775 19.4442 2.98281 19.8657 4.12713 20.0771C4.47859 20.142 4.65432 20.1744 4.73064 20.2847C4.80697 20.3949 4.77562 20.5703 4.71293 20.9213C4.56117 21.7709 4.58514 22.5392 5.12999 22.9464C5.70099 23.3633 6.61087 22.918 8.43062 22.0274C8.63218 21.9288 8.83446 21.8277 9.03713 21.7264L9.04022 21.7248C10.1206 21.1848 11.2216 20.6344 12.3957 20.3631C12.9064 20.2464 13.4263 20.1965 14.079 20.1819C18.4709 20.1819 20.6669 20.1819 22.0313 18.8125C23.3957 17.4431 23.3957 15.2391 23.3957 10.8311V10.2466C23.3957 5.83858 23.3957 3.63456 22.0313 2.26516C20.6669 0.895752 18.4709 0.895752 14.079 0.895752ZM16.8957 13.6249C16.8957 14.0737 16.5319 14.4374 16.0832 14.4374H7.4165C6.96777 14.4374 6.604 14.0737 6.604 13.6249C6.604 13.1762 6.96777 12.8124 7.4165 12.8124H16.0832C16.5319 12.8124 16.8957 13.1762 16.8957 13.6249ZM12.5623 8.20825C12.5623 8.65698 12.1986 9.02075 11.7498 9.02075H7.4165C6.96777 9.02075 6.604 8.65698 6.604 8.20825C6.604 7.75952 6.96777 7.39575 7.4165 7.39575H11.7498C12.1986 7.39575 12.5623 7.75952 12.5623 8.20825Z" fill="#316599"/>
</svg>
