<svg width="20" height="20" viewBox="0 0 20 20" fill="none" xmlns="http://www.w3.org/2000/svg">
<path d="M8.22151 2.19823C8.79261 2.06863 9.38779 2 10.0002 2C14.4185 2 18.0002 5.58172 18.0002 10C18.0002 12.0411 17.2363 13.904 15.9769 15.3181V14C15.9769 13.4477 15.5292 13 14.9769 13C14.4246 13 13.9769 13.4477 13.9769 14V17.5C13.9769 18.0523 14.4246 18.5 14.9769 18.5H18.5002C19.0525 18.5 19.5002 18.0523 19.5002 17.5C19.5002 16.9477 19.0525 16.5 18.5002 16.5H17.5996C19.0955 14.7526 20.0002 12.482 20.0002 10C20.0002 4.47715 15.5231 0 10.0002 0C9.23787 0 8.49427 0.085489 7.77893 0.247808C7.24034 0.370021 6.9028 0.90571 7.02501 1.4443C7.14722 1.9829 7.68291 2.32044 8.22151 2.19823Z" fill="#316599"/>
<path d="M1.5 1.51562C0.947715 1.51562 0.5 1.96334 0.5 2.51562C0.5 3.06791 0.947715 3.51562 1.5 3.51562H2.3873C0.899329 5.26098 0 7.5254 0 10.0001C0 15.5229 4.47715 20.0001 10 20.0001C10.7623 20.0001 11.5059 19.9146 12.2213 19.7523C12.7599 19.6301 13.0974 19.0944 12.9752 18.5558C12.853 18.0172 12.3173 17.6796 11.7787 17.8019C11.2076 17.9314 10.6124 18.0001 10 18.0001C5.58172 18.0001 2 14.4184 2 10.0001C2 7.97161 2.75451 6.11915 4 4.70824V6.00008C4 6.55236 4.44772 7.00008 5 7.00008C5.55228 7.00008 6 6.55236 6 6.00008V2.51562C6 1.96334 5.55228 1.51562 5 1.51562H1.5Z" fill="#316599"/>
</svg>
