<svg width="20" height="20" viewBox="0 0 20 20" fill="none" xmlns="http://www.w3.org/2000/svg">
<path fill-rule="evenodd" clip-rule="evenodd" d="M10 0.75C4.89137 0.75 0.75 4.89137 0.75 10C0.75 15.1086 4.89137 19.25 10 19.25C15.1086 19.25 19.25 15.1086 19.25 10C19.25 4.89137 15.1086 0.75 10 0.75ZM7.59681 6.37993C7.26078 6.0439 6.71596 6.0439 6.37993 6.37993C6.0439 6.71596 6.0439 7.26078 6.37993 7.59681L8.78312 10L6.37993 12.4032C6.0439 12.7392 6.0439 13.284 6.37993 13.6201C6.71596 13.9561 7.26078 13.9561 7.59681 13.6201L10 11.2169L12.4032 13.6201C12.7392 13.9561 13.284 13.9561 13.6201 13.6201C13.9561 13.284 13.9561 12.7392 13.6201 12.4032L11.2169 10L13.6201 7.59681C13.9561 7.26078 13.9561 6.71596 13.6201 6.37993C13.284 6.0439 12.7392 6.0439 12.4032 6.37993L10 8.78312L7.59681 6.37993Z" fill="#D13030"/>
</svg>
