<svg width="14" height="16" viewBox="0 0 14 16" fill="none" xmlns="http://www.w3.org/2000/svg">
<path d="M5.66667 8.66675C5.66667 8.29856 5.96514 8.00008 6.33333 8.00008H9.66667C10.0349 8.00008 10.3333 8.29856 10.3333 8.66675C10.3333 9.03494 10.0349 9.33341 9.66667 9.33341H6.33333C5.96514 9.33341 5.66667 9.03494 5.66667 8.66675Z" fill="#9E9E9E"/>
<path d="M3.66667 8.66675C3.66667 8.29856 3.96514 8.00008 4.33333 8.00008H4.33932C4.70751 8.00008 5.00599 8.29856 5.00599 8.66675C5.00599 9.03494 4.70751 9.33341 4.33932 9.33341H4.33333C3.96514 9.33341 3.66667 9.03494 3.66667 8.66675Z" fill="#9E9E9E"/>
<path d="M3.66667 11.3334C3.66667 10.9652 3.96514 10.6667 4.33333 10.6667H7.66667C8.03486 10.6667 8.33333 10.9652 8.33333 11.3334C8.33333 11.7016 8.03486 12.0001 7.66667 12.0001H4.33333C3.96514 12.0001 3.66667 11.7016 3.66667 11.3334Z" fill="#9E9E9E"/>
<path d="M8.99401 11.3334C8.99401 10.9652 9.29249 10.6667 9.66068 10.6667H9.66667C10.0349 10.6667 10.3333 10.9652 10.3333 11.3334C10.3333 11.7016 10.0349 12.0001 9.66667 12.0001H9.66068C9.29249 12.0001 8.99401 11.7016 8.99401 11.3334Z" fill="#9E9E9E"/>
<path fill-rule="evenodd" clip-rule="evenodd" d="M3.66667 1.33341C3.66667 0.965225 3.36819 0.666748 3 0.666748C2.63181 0.666748 2.33333 0.965225 2.33333 1.33341V1.63265C1.82588 1.79361 1.38489 2.0467 1.01201 2.44982C0.459662 3.04695 0.22186 3.79523 0.109441 4.69919C-2.1865e-05 5.57937 -1.20662e-05 6.70279 2.60767e-07 8.11599V8.55083C-1.20663e-05 9.96403 -2.1865e-05 11.0875 0.109441 11.9676C0.22186 12.8716 0.459662 13.6199 1.01201 14.217C1.5712 14.8215 2.28356 15.0887 3.14355 15.2137C3.96761 15.3335 5.01528 15.3334 6.31414 15.3334H7.68584C8.9847 15.3334 10.0324 15.3335 10.8564 15.2137C11.7164 15.0887 12.4288 14.8215 12.988 14.217C13.5403 13.6199 13.7781 12.8716 13.8906 11.9676C14 11.0875 14 9.96403 14 8.55082V8.11602C14 6.7028 14 5.57938 13.8906 4.69919C13.7781 3.79523 13.5403 3.04695 12.988 2.44982C12.6151 2.0467 12.1741 1.79361 11.6667 1.63265V1.33341C11.6667 0.965225 11.3682 0.666748 11 0.666748C10.6318 0.666748 10.3333 0.965225 10.3333 1.33341V1.39457C9.60197 1.33338 8.72417 1.3334 7.68585 1.33342H6.31415C5.27583 1.3334 4.39803 1.33338 3.66667 1.39457V1.33341ZM1.44257 6.09619C1.53993 6.00008 1.6928 6.00008 1.99855 6.00008H12.0014C12.3072 6.00008 12.4601 6.00008 12.5574 6.09619C12.6548 6.1923 12.6568 6.34323 12.6607 6.64509C12.6665 7.09386 12.6667 7.5962 12.6667 8.16225V8.50459C12.6667 9.97449 12.6655 11.0148 12.5674 11.8031C12.4712 12.5772 12.2916 13.0063 12.0092 13.3116C11.7336 13.6095 11.3569 13.7936 10.6647 13.8942C9.94762 13.9984 8.99717 14.0001 7.63333 14.0001H6.36667C5.00284 14.0001 4.05238 13.9984 3.33533 13.8942C2.64313 13.7936 2.26637 13.6095 1.99081 13.3116C1.70842 13.0063 1.52885 12.5772 1.43258 11.8031C1.33455 11.0148 1.33333 9.97449 1.33333 8.50459V8.16225C1.33333 7.5962 1.33351 7.09386 1.33933 6.64509C1.34325 6.34323 1.34521 6.1923 1.44257 6.09619Z" fill="#9E9E9E"/>
</svg>
