<svg width="27" height="26" viewBox="0 0 27 26" fill="none" xmlns="http://www.w3.org/2000/svg">
<path fill-rule="evenodd" clip-rule="evenodd" d="M13.9217 1.75977H13.579C12.9716 1.7597 12.416 1.75964 11.9534 1.82C11.4379 1.88727 10.9322 2.03997 10.4758 2.41591C10.0317 2.78169 9.7696 3.24817 9.57031 3.73777C9.38274 4.19856 9.21308 4.78037 9.01725 5.45189C8.98519 5.56184 8.95354 5.67191 8.9219 5.78198C8.91804 5.79542 8.91417 5.80885 8.91031 5.82229H6.52208C5.85684 5.82204 5.38454 5.82186 4.98582 5.91384C3.8699 6.17126 2.91841 6.97397 2.68755 8.09483C2.60618 8.48992 2.6604 8.93732 2.72368 9.45954C2.82796 10.3232 3.10583 11.1423 3.71943 11.781C4.27559 12.3599 5.01925 12.7312 5.88161 12.9851L10.5205 14.3508C11.9505 14.772 12.8287 15.0307 13.7499 15.0307C14.671 15.0307 15.5492 14.772 16.9792 14.3508L21.6181 12.9851C22.4805 12.7312 23.2241 12.3599 23.7803 11.781C24.3939 11.1423 24.6718 10.3232 24.776 9.45952C24.8393 8.93731 24.8935 8.48992 24.8122 8.09483C24.5813 6.97397 23.6298 6.17126 22.5139 5.91384C22.1152 5.82186 21.6429 5.82204 20.9776 5.82229H18.6009L18.4835 5.45188C18.2877 4.78037 18.118 4.19856 17.9304 3.73777C17.7311 3.24817 17.469 2.78169 17.025 2.41591C16.5686 2.03997 16.0628 1.88727 15.5473 1.82C15.0847 1.75964 14.5292 1.7597 13.9217 1.75977ZM16.3344 5.82229C16.1653 5.24583 16.0449 4.85247 15.9236 4.55464C15.777 4.19448 15.6562 4.01924 15.267 3.96846C14.9613 3.92857 14.5492 3.92644 13.8612 3.92644H13.6395C12.9516 3.92644 12.5395 3.92857 12.2338 3.96846C11.8446 4.01924 11.7237 4.19448 11.5771 4.55464C11.4559 4.85247 11.3354 5.24583 11.1663 5.82229H16.3344Z" fill="#316599"/>
<path d="M24.0244 13.9675C24.0135 13.8416 23.8721 13.7722 23.7631 13.836C23.2224 14.1521 22.6463 14.3774 22.0757 14.5454L20.5139 15.0051C19.4372 15.3219 18.3605 15.6387 17.284 15.9562C15.992 16.3373 14.9074 16.6572 13.7485 16.6572C12.5896 16.6572 11.5051 16.3373 10.213 15.9562C9.1362 15.6386 8.05915 15.3217 6.98212 15.0048L5.42134 14.5454C4.85067 14.3774 4.27462 14.152 3.73392 13.8359C3.62484 13.7721 3.48335 13.8416 3.47249 13.9675C3.28638 16.1255 3.1397 17.8263 3.19963 19.161C3.26098 20.5271 3.54163 21.6455 4.32393 22.5485C5.11254 23.4589 6.16243 23.8641 7.46852 24.0553C8.73242 24.2403 10.3596 24.2403 12.4075 24.2403H15.0893C17.1371 24.2403 18.7645 24.2403 20.0284 24.0553C21.3344 23.8641 22.3843 23.4589 23.1729 22.5485C23.9552 21.6455 24.2359 20.5271 24.2972 19.161C24.3572 17.8263 24.2105 16.1255 24.0244 13.9675Z" fill="#316599"/>
</svg>
