<svg width="18" height="18" viewBox="0 0 18 18" fill="none" xmlns="http://www.w3.org/2000/svg">
<path d="M11.6817 0.454296C12.6735 -0.135603 13.8968 -0.154089 14.9056 0.405972C15.3241 0.638292 15.7058 1.02847 16.2735 1.60875L16.4276 1.76624C16.9973 2.34778 17.3785 2.73698 17.6049 3.16246C18.1479 4.18324 18.1302 5.4181 17.5578 6.42246C17.3841 6.72738 17.1287 7.01057 16.7764 7.35987C16.6122 7.52265 16.5301 7.60404 16.4264 7.60382C16.3226 7.60359 16.2398 7.5208 16.0742 7.35521L10.7227 2.0037C10.5606 1.84154 10.4795 1.76046 10.478 1.65859C10.4765 1.55673 10.5543 1.47415 10.71 1.30898C11.076 0.920621 11.3668 0.64158 11.6817 0.454296Z" fill="#316599"/>
<path d="M15.1091 8.86477C15.1081 8.9702 15.0214 9.05376 14.8478 9.2209L8.28698 15.5401C7.13077 16.6541 6.41816 17.3407 5.51642 17.6929C4.6134 18.0456 3.63143 18.0198 2.04293 17.9779C2.02736 17.9775 1.16529 17.9549 0.972734 17.9227C0.749565 17.8855 0.484498 17.7999 0.274795 17.5619C0.0669669 17.3261 0.0136351 17.0539 0.00115588 16.8299C-0.00986309 16.6322 0.0615235 15.719 0.0617176 15.7165L0.0619052 15.7141C0.170039 14.3235 0.23617 13.473 0.572 12.7001C0.908473 11.9256 1.48328 11.303 2.42112 10.2872L8.89016 3.27833C9.05676 3.09782 9.14007 3.00757 9.24705 3.00543C9.35403 3.00329 9.44088 3.09013 9.61458 3.26383L14.8546 8.50381C15.0249 8.67417 15.1101 8.75935 15.1091 8.86477Z" fill="#316599"/>
</svg>
