<svg width="20" height="20" viewBox="0 0 20 20" fill="none" xmlns="http://www.w3.org/2000/svg">
<path d="M12.6817 1.4543C13.6735 0.864397 14.8968 0.845911 15.9056 1.40597C16.3241 1.63829 16.7058 2.02847 17.2735 2.60875L17.4276 2.76624C17.9973 3.34778 18.3785 3.73698 18.6049 4.16246C19.1479 5.18324 19.1302 6.4181 18.5578 7.42246C18.3841 7.72738 18.1287 8.01057 17.7764 8.35987C17.6122 8.52265 17.5301 8.60404 17.4264 8.60382C17.3226 8.60359 17.2398 8.5208 17.0742 8.35521L11.7227 3.0037C11.5606 2.84154 11.4795 2.76046 11.478 2.65859C11.4765 2.55673 11.5543 2.47415 11.71 2.30898C12.076 1.92062 12.3668 1.64158 12.6817 1.4543Z" stroke="#316599" stroke-linejoin="round"/>
<path d="M16.1091 9.86477C16.1081 9.9702 16.0214 10.0538 15.8478 10.2209L9.28698 16.5401C8.13077 17.6541 7.41816 18.3407 6.51642 18.6929C5.6134 19.0456 4.63143 19.0198 3.04293 18.9779C3.02736 18.9775 2.16529 18.9549 1.97273 18.9227C1.74957 18.8855 1.4845 18.7999 1.27479 18.5619C1.06697 18.3261 1.01364 18.0539 1.00116 17.8299C0.990137 17.6322 1.06152 16.719 1.06172 16.7165L1.06191 16.7141C1.17004 15.3235 1.23617 14.473 1.572 13.7001C1.90847 12.9256 2.48328 12.303 3.42112 11.2872L9.89016 4.27833C10.0568 4.09782 10.1401 4.00757 10.2471 4.00543C10.354 4.00329 10.4409 4.09013 10.6146 4.26383L15.8546 9.50381C16.0249 9.67417 16.1101 9.75935 16.1091 9.86477Z" stroke="#316599" stroke-linejoin="round"/>
</svg>
