<svg width="20" height="20" viewBox="0 0 20 20" fill="none" xmlns="http://www.w3.org/2000/svg">
<path d="M7.47898 2.70825H7.52106C7.89144 2.70825 8.20065 2.70824 8.45449 2.72556C8.71874 2.74359 8.96835 2.78246 9.21034 2.8827C9.77186 3.11529 10.218 3.56141 10.4506 4.12294C10.5508 4.36493 10.5897 4.61453 10.6077 4.87878C10.625 5.13262 10.625 5.4418 10.625 5.81217V5.8543C10.625 6.22467 10.625 6.53389 10.6077 6.78772C10.5897 7.05197 10.5508 7.30158 10.4506 7.54357C10.218 8.10509 9.77186 8.55122 9.21034 8.78381C8.96835 8.88405 8.71874 8.92291 8.45449 8.94094C8.20065 8.95826 7.89145 8.95826 7.52107 8.95825H7.47897C7.10859 8.95826 6.79939 8.95826 6.54555 8.94094C6.2813 8.92291 6.0317 8.88405 5.7897 8.78381C5.22818 8.55122 4.78205 8.10509 4.54946 7.54357C4.44923 7.30158 4.41036 7.05197 4.39233 6.78772C4.38966 6.74866 4.38741 6.70829 4.3855 6.66659H2.50002C2.03978 6.66659 1.66669 6.29349 1.66669 5.83325C1.66669 5.37301 2.03978 4.99992 2.50002 4.99992H4.3855C4.38741 4.95821 4.38966 4.91784 4.39233 4.87878C4.41036 4.61453 4.44923 4.36493 4.54946 4.12294C4.78205 3.56141 5.22818 3.11529 5.7897 2.8827C6.0317 2.78246 6.2813 2.74359 6.54555 2.72556C6.79939 2.70824 7.1086 2.70825 7.47898 2.70825Z" fill="#161616"/>
<path d="M2.50002 13.3333C2.03978 13.3333 1.66669 13.7063 1.66669 14.1666C1.66669 14.6268 2.03978 14.9999 2.50002 14.9999H7.50002C7.96026 14.9999 8.33335 14.6268 8.33335 14.1666C8.33335 13.7063 7.96026 13.3333 7.50002 13.3333H2.50002Z" fill="#161616"/>
<path d="M15.6145 13.3333C15.6126 13.2915 15.6104 13.2512 15.6077 13.2121C15.5897 12.9479 15.5508 12.6983 15.4506 12.4563C15.218 11.8947 14.7719 11.4486 14.2103 11.216C13.9683 11.1158 13.7187 11.0769 13.4545 11.0589C13.2007 11.0416 12.8915 11.0416 12.5211 11.0416H12.479C12.1086 11.0416 11.7994 11.0416 11.5455 11.0589C11.2813 11.0769 11.0317 11.1158 10.7897 11.216C10.2282 11.4486 9.78205 11.8947 9.54946 12.4563C9.44923 12.6983 9.41036 12.9479 9.39233 13.2121C9.37501 13.4659 9.37501 13.7751 9.37502 14.1455V14.1876C9.37501 14.558 9.37501 14.8672 9.39233 15.1211C9.41036 15.3853 9.44923 15.6349 9.54946 15.8769C9.78205 16.4384 10.2282 16.8846 10.7897 17.1171C11.0317 17.2174 11.2813 17.2562 11.5456 17.2743C11.7994 17.2916 12.1086 17.2916 12.4789 17.2916H12.5211C12.8914 17.2916 13.2007 17.2916 13.4545 17.2743C13.7187 17.2562 13.9683 17.2174 14.2103 17.1171C14.7719 16.8846 15.218 16.4384 15.4506 15.8769C15.5508 15.6349 15.5897 15.3853 15.6077 15.1211C15.6104 15.082 15.6126 15.0416 15.6145 14.9999H17.5C17.9603 14.9999 18.3334 14.6268 18.3334 14.1666C18.3334 13.7063 17.9603 13.3333 17.5 13.3333H15.6145Z" fill="#161616"/>
<path d="M12.5 4.99992C12.0398 4.99992 11.6667 5.37301 11.6667 5.83325C11.6667 6.29349 12.0398 6.66659 12.5 6.66659L17.5 6.66659C17.9603 6.66659 18.3334 6.29349 18.3334 5.83325C18.3334 5.37302 17.9603 4.99992 17.5 4.99992L12.5 4.99992Z" fill="#161616"/>
</svg>
