<svg width="22" height="22" viewBox="0 0 22 22" fill="none" xmlns="http://www.w3.org/2000/svg">
<path fill-rule="evenodd" clip-rule="evenodd" d="M0.25 11C0.25 16.9371 5.06294 21.75 11 21.75C16.9371 21.75 21.75 16.9371 21.75 11C21.75 5.06294 16.9371 0.25 11 0.25C5.06294 0.25 0.25 5.06294 0.25 11ZM4.5 11C4.5 10.5858 4.83579 10.25 5.25 10.25H9.5V9.93899C9.49995 9.66532 9.4999 9.39668 9.52358 9.18889C9.54214 9.02613 9.6038 8.55368 10.0221 8.33716C10.4407 8.12048 10.82 8.36549 10.9486 8.4518C11.1133 8.56231 11.307 8.73107 11.5045 8.90312L11.5326 8.92757C11.8348 9.1907 12.1702 9.49684 12.434 9.79981C12.5658 9.95115 12.696 10.12 12.7968 10.2985C12.8914 10.4662 13 10.7115 13 11C13 11.2885 12.8914 11.5338 12.7968 11.7015C12.696 11.88 12.5658 12.0488 12.434 12.2002C12.1702 12.5032 11.8348 12.8093 11.5326 13.0724L11.5045 13.0969C11.307 13.2689 11.1133 13.4377 10.9486 13.5482C10.82 13.6345 10.4407 13.8795 10.0221 13.6628C9.6038 13.4463 9.54214 12.9739 9.52358 12.8111C9.4999 12.6033 9.49995 12.3347 9.5 12.061V11.75H5.25C4.83579 11.75 4.5 11.4142 4.5 11ZM15.25 6.25C15.6642 6.25 16 6.58579 16 7V15C16 15.4142 15.6642 15.75 15.25 15.75C14.8358 15.75 14.5 15.4142 14.5 15V7C14.5 6.58579 14.8358 6.25 15.25 6.25Z" fill="#316599"/>
</svg>
