<svg width="12" height="16" viewBox="0 0 12 16" fill="none" xmlns="http://www.w3.org/2000/svg">
<path fill-rule="evenodd" clip-rule="evenodd" d="M5.99935 8.16665C4.80468 8.16665 3.83268 7.19465 3.83268 5.99998C3.83268 4.80531 4.80468 3.83331 5.99935 3.83331C7.19402 3.83331 8.16602 4.80531 8.16602 5.99998C8.16602 7.19465 7.19402 8.16665 5.99935 8.16665ZM5.99935 4.83331C5.35602 4.83331 4.83268 5.35665 4.83268 5.99998C4.83268 6.64331 5.35602 7.16665 5.99935 7.16665C6.64268 7.16665 7.16602 6.64331 7.16602 5.99998C7.16602 5.35665 6.64268 4.83331 5.99935 4.83331Z" fill="#9E9E9E"/>
<path fill-rule="evenodd" clip-rule="evenodd" d="M4.81465 12.0233C5.13465 12.3307 5.55532 12.5 5.99932 12.5C6.44332 12.5 6.86331 12.3307 7.18331 12.0227C7.33931 11.8727 7.49933 11.7206 7.66133 11.5673C9.65933 9.67266 12.146 7.31462 10.772 4.01064C9.98198 2.10997 8.06332 0.833313 5.99932 0.833313C3.93532 0.833313 2.01732 2.10997 1.22732 4.01064C-0.142016 7.30197 2.32398 9.64931 4.30531 11.5353L4.32448 11.5536C4.48995 11.7114 4.65354 11.8673 4.81465 12.0233ZM2.15066 4.39464C2.78732 2.86264 4.33399 1.83331 5.99932 1.83331V1.83265C7.66466 1.83265 9.21199 2.86197 9.84932 4.39397C10.9587 7.06197 8.93333 8.98332 6.974 10.8413C6.81 10.9967 6.64866 11.15 6.49066 11.302C6.358 11.43 6.18332 11.5 5.99932 11.5C5.81532 11.5 5.64065 11.4293 5.50932 11.3033C5.34132 11.1406 5.16933 10.9766 4.99467 10.8106C3.0534 8.9627 1.04536 7.05121 2.15066 4.39464Z" fill="#9E9E9E"/>
<path d="M5.99935 15.1666C3.83268 15.1666 0.166016 14.746 0.166016 13.1693C0.166016 12.4273 0.970022 11.8693 2.55602 11.512C2.82536 11.4513 3.09267 11.6206 3.154 11.89C3.21467 12.1593 3.04534 12.4266 2.77601 12.488C1.62934 12.7466 1.23801 13.058 1.17201 13.17C1.33201 13.4693 2.92333 14.1666 6 14.1666C9.07667 14.1666 10.6674 13.4693 10.828 13.17C10.762 13.058 10.3707 12.746 9.22402 12.488C8.95469 12.4273 8.78536 12.16 8.84603 11.89C8.9067 11.6206 9.17401 11.4513 9.44401 11.512C11.03 11.8693 11.834 12.4266 11.834 13.1693C11.834 13.832 11.1854 14.3506 9.90736 14.7093C8.85736 15.004 7.47002 15.1666 6.00068 15.1666H5.99935Z" fill="#9E9E9E"/>
</svg>
