<svg width="18" height="18" viewBox="0 0 18 18" fill="none" xmlns="http://www.w3.org/2000/svg">
<path d="M10.1028 2.01921C10.5955 3.05382 11.0869 4.35759 11.3939 5.87508H6.60695C6.91395 4.35759 7.4054 3.05382 7.89807 2.01921C7.97203 1.86389 8.04602 1.70676 8.1193 1.55115C8.38926 0.977868 8.65045 0.423197 8.87069 0.0426683C8.91387 0.0420548 8.95712 0.041748 9.00045 0.041748C9.04377 0.041748 9.08702 0.0420548 9.1302 0.0426683C9.35046 0.423224 9.61145 0.977468 9.88143 1.5508C9.95478 1.70656 10.0288 1.86373 10.1028 2.01921Z" fill="#51A8FF"/>
<path d="M6.29211 9.0005C6.29211 8.35022 6.33286 7.72416 6.40519 7.12508H11.5957C11.668 7.72416 11.7088 8.35022 11.7088 9.0005C11.7088 9.65048 11.6681 10.2763 11.5958 10.8751H6.40509C6.33282 10.2763 6.29211 9.65048 6.29211 9.0005Z" fill="#51A8FF"/>
<path d="M6.60677 12.1251C6.91377 13.6429 7.40531 14.947 7.89807 15.9818C7.97116 16.1353 8.04423 16.2904 8.11666 16.4442L8.11711 16.4451C8.38792 17.0201 8.64978 17.576 8.87067 17.9575C8.91386 17.9581 8.95712 17.9584 9.00045 17.9584C9.04378 17.9584 9.08704 17.9581 9.13022 17.9575C9.35111 17.576 9.61298 17.02 9.88378 16.4451C9.95636 16.2911 10.0296 16.1356 10.1028 15.9818C10.5956 14.947 11.0871 13.6429 11.3941 12.1251H6.60677Z" fill="#51A8FF"/>
<path d="M5.04211 9.00035C5.04211 9.64865 5.07957 10.2743 5.14666 10.8749H0.238644C0.109874 10.2703 0.0421143 9.64301 0.0421143 8.99993C0.0421143 8.35685 0.109874 7.7296 0.238644 7.12493H5.14676C5.07961 7.72583 5.04211 8.35175 5.04211 9.00035Z" fill="#51A8FF"/>
<path d="M5.33347 5.87493H0.602253C1.68904 2.95547 4.25458 0.755732 7.38834 0.186263C7.24763 0.472299 7.10082 0.782464 6.95229 1.09624L6.95169 1.0975C6.89114 1.22542 6.83031 1.35393 6.76949 1.48165C6.21521 2.64565 5.65957 4.13298 5.33347 5.87493Z" fill="#51A8FF"/>
<path d="M0.602253 12.1249H5.33332C5.65939 13.8672 6.21512 15.3549 6.76949 16.5191C6.82952 16.6451 6.88956 16.7719 6.94933 16.8982C7.09878 17.2138 7.24654 17.5259 7.38811 17.8136C4.25446 17.244 1.68901 15.0443 0.602253 12.1249Z" fill="#51A8FF"/>
<path d="M12.6666 5.87493C12.3405 4.13298 11.7849 2.64565 11.2306 1.48165C11.1697 1.35372 11.1088 1.22499 11.0481 1.09687C10.8996 0.783098 10.7525 0.472299 10.6118 0.186263C13.7455 0.755732 16.3111 2.95547 17.3979 5.87493H12.6666Z" fill="#51A8FF"/>
<path d="M17.7615 7.12493H12.8534C12.9205 7.72583 12.958 8.35175 12.958 9.00035C12.958 9.64865 12.9205 10.2743 12.8535 10.8749H17.7615C17.8902 10.2703 17.958 9.64301 17.958 8.99993C17.958 8.35685 17.8902 7.7296 17.7615 7.12493Z" fill="#51A8FF"/>
<path d="M12.6668 12.1249H17.3979C16.3111 15.0443 13.7457 17.244 10.612 17.8136C10.7536 17.5259 10.9013 17.2139 11.0508 16.8982C11.1105 16.772 11.1706 16.6451 11.2306 16.5191C11.785 15.3549 12.3407 13.8672 12.6668 12.1249Z" fill="#51A8FF"/>
</svg>
