<svg width="24" height="24" viewBox="0 0 24 24" fill="none" xmlns="http://www.w3.org/2000/svg">
<path d="M7 12C7 11.4477 7.44772 11 8 11H8.00898C8.56127 11 9.00898 11.4477 9.00898 12C9.00898 12.5523 8.56127 13 8.00898 13H8C7.44772 13 7 12.5523 7 12Z" fill="#9E9E9E"/>
<path d="M11.9961 11C11.4438 11 10.9961 11.4477 10.9961 12C10.9961 12.5523 11.4438 13 11.9961 13H12.0051C12.5574 13 13.0051 12.5523 13.0051 12C13.0051 11.4477 12.5574 11 12.0051 11H11.9961Z" fill="#9E9E9E"/>
<path d="M16 11C15.4477 11 15 11.4477 15 12C15 12.5523 15.4477 13 16 13H16.009C16.5613 13 17.009 12.5523 17.009 12C17.009 11.4477 16.5613 11 16.009 11H16Z" fill="#9E9E9E"/>
<path fill-rule="evenodd" clip-rule="evenodd" d="M12 22.75C6.06294 22.75 1.25 17.9371 1.25 12C1.25 6.06294 6.06294 1.25 12 1.25C17.9371 1.25 22.75 6.06294 22.75 12C22.75 17.9371 17.9371 22.75 12 22.75ZM2.75 12C2.75 17.1086 6.89137 21.25 12 21.25C17.1086 21.25 21.25 17.1086 21.25 12C21.25 6.89137 17.1086 2.75 12 2.75C6.89137 2.75 2.75 6.89137 2.75 12Z" fill="#9E9E9E"/>
</svg>
