<svg width="22" height="18" viewBox="0 0 22 18" fill="none" xmlns="http://www.w3.org/2000/svg">
<path fill-rule="evenodd" clip-rule="evenodd" d="M11.049 5.75C9.25412 5.75 7.79904 7.20507 7.79904 9C7.79904 10.7949 9.25412 12.25 11.049 12.25C12.844 12.25 14.299 10.7949 14.299 9C14.299 7.20507 12.844 5.75 11.049 5.75ZM9.29904 9C9.29904 8.0335 10.0825 7.25 11.049 7.25C12.0155 7.25 12.799 8.0335 12.799 9C12.799 9.9665 12.0155 10.75 11.049 10.75C10.0825 10.75 9.29904 9.9665 9.29904 9Z" fill="#316599"/>
<path d="M18.5098 8H16.5008V10H18.5098V8Z" fill="#316599"/>
<path d="M3.49096 8H5.49994V10H3.49096V8Z" fill="#316599"/>
<path fill-rule="evenodd" clip-rule="evenodd" d="M1 0.25C0.585786 0.25 0.25 0.585786 0.25 1V17C0.25 17.4142 0.585786 17.75 1 17.75H21C21.4142 17.75 21.75 17.4142 21.75 17V1C21.75 0.585786 21.4142 0.25 21 0.25H1ZM1.75 16.25V1.75H20.25V16.25H1.75Z" fill="#316599"/>
</svg>
