<svg width="19" height="14" viewBox="0 0 19 14" fill="none" xmlns="http://www.w3.org/2000/svg">
<path d="M7.06878 0.181226C7.25878 0.181226 7.44878 0.251225 7.59878 0.401225C7.88878 0.691225 7.88878 1.17122 7.59878 1.46122L2.05878 7.00123L7.59878 12.5412C7.88878 12.8312 7.88878 13.3112 7.59878 13.6012C7.30878 13.8912 6.82878 13.8912 6.53878 13.6012L0.468779 7.53123C0.178778 7.24123 0.178778 6.76123 0.468779 6.47123L6.53878 0.401225C6.68878 0.251225 6.87878 0.181226 7.06878 0.181226Z" fill="#FAFAFA"/>
<path d="M1.16878 6.25123H17.9988C18.4088 6.25123 18.7488 6.59123 18.7488 7.00123C18.7488 7.41123 18.4088 7.75123 17.9988 7.75123H1.16878C0.75878 7.75123 0.418779 7.41123 0.418779 7.00123C0.418779 6.59123 0.75878 6.25123 1.16878 6.25123Z" fill="#FAFAFA"/>
</svg>
