<svg width="18" height="20" viewBox="0 0 18 20" fill="none" xmlns="http://www.w3.org/2000/svg">
<path fill-rule="evenodd" clip-rule="evenodd" d="M9 0.000244141C4.98977 0.000244141 1.7351 3.34115 1.73507 7.4671C1.73499 8.4268 1.67254 9.15114 1.24444 9.80217C1.18492 9.89137 1.10594 10.0031 1.01964 10.1252C0.869749 10.3372 0.697749 10.5806 0.567301 10.7913C0.337069 11.1632 0.112135 11.6117 0.0348083 12.1342C-0.217474 13.8391 0.945501 14.943 2.10371 15.4376C2.85657 15.7591 3.66237 16.0213 4.50157 16.2242C4.49603 16.3207 4.50508 16.4197 4.53041 16.5183C5.04979 18.5382 6.86776 20.0002 9.00022 20.0002C11.1327 20.0002 12.9507 18.5382 13.47 16.5183C13.4954 16.4197 13.5044 16.3206 13.4989 16.2241C14.3379 16.0212 15.1436 15.7591 15.8963 15.4376C17.0545 14.943 18.2175 13.8391 17.9652 12.1342C17.8879 11.6117 17.6629 11.1632 17.4327 10.7913C17.3023 10.5806 17.1303 10.3373 16.9804 10.1253C16.8941 10.0032 16.8151 9.89144 16.7556 9.80224C16.3275 9.15119 16.265 8.42692 16.2649 7.46716C16.2649 3.34118 13.0103 0.000244141 9 0.000244141ZM11.5266 16.585C9.8644 16.7973 8.13608 16.7973 6.47387 16.5851C6.93008 17.4969 7.88073 18.1398 9.00022 18.1398C10.1197 18.1398 11.0704 17.4968 11.5266 16.585Z" fill="#51A8FF"/>
</svg>
