<svg width="24" height="24" viewBox="0 0 24 24" fill="none" xmlns="http://www.w3.org/2000/svg">
<path fill-rule="evenodd" clip-rule="evenodd" d="M12.0008 1.25C7.43306 1.25 3.72594 4.94128 3.72591 9.49994C3.72581 10.5603 3.65469 11.3606 3.16707 12.0799C3.09927 12.1785 3.0093 12.3019 2.911 12.4368C2.74027 12.6711 2.54438 12.9399 2.3958 13.1727C2.13356 13.5836 1.87736 14.0791 1.78928 14.6565C1.50193 16.5402 2.82658 17.7598 4.1458 18.3063C5.12791 18.7132 6.18911 19.034 7.29597 19.2689C7.87005 21.2894 9.76964 22.7499 11.9998 22.7499C14.2298 22.7499 16.1293 21.2896 16.7035 19.2693C17.8111 19.0344 18.873 18.7134 19.8558 18.3063C21.175 17.7598 22.4996 16.5402 22.2123 14.6565C22.1242 14.0791 21.868 13.5836 21.6058 13.1727C21.4572 12.9399 21.2613 12.6711 21.0906 12.4368C20.9923 12.302 20.9023 12.1785 20.8346 12.08C20.3469 11.3606 20.2757 10.5604 20.2757 9.5C20.2757 4.94131 16.5685 1.25 12.0008 1.25ZM5.22591 9.5C5.22591 5.77442 8.25678 2.75 12.0008 2.75C15.7448 2.75 18.7757 5.77448 18.7757 9.50006C18.7757 10.5825 18.8291 11.7967 19.5947 12.9242L19.5971 12.9277C19.7229 13.1108 19.8334 13.261 19.9376 13.4025C20.0763 13.5909 20.2038 13.7642 20.3413 13.9797C20.5546 14.3138 20.6868 14.6034 20.7294 14.8827C20.8674 15.7871 20.2906 16.5026 19.2817 16.9206C15.0027 18.6932 8.99884 18.6932 4.71987 16.9205C3.71098 16.5026 3.13417 15.7871 3.27213 14.8827C3.31474 14.6034 3.44699 14.3138 3.66023 13.9797C3.79779 13.7642 3.92525 13.591 4.06397 13.4025C4.16796 13.2612 4.27884 13.1106 4.40449 12.9277L4.40689 12.9242C5.17243 11.7967 5.22581 10.5824 5.22591 9.5ZM14.9637 19.5634C13.0152 19.8123 10.9843 19.8122 9.03578 19.5631C9.60729 20.5618 10.7133 21.2499 11.9998 21.2499C13.2862 21.2499 14.3922 20.562 14.9637 19.5634Z" fill="#161616"/>
</svg>
