<svg width="16" height="12" viewBox="0 0 16 12" fill="none" xmlns="http://www.w3.org/2000/svg">
<path d="M6.83398 3.33335C6.83398 3.05721 7.05784 2.83335 7.33398 2.83335L8.66732 2.83335C8.94346 2.83335 9.16732 3.05721 9.16732 3.33335C9.16732 3.6095 8.94346 3.83335 8.66732 3.83335L7.33398 3.83335C7.05784 3.83335 6.83398 3.6095 6.83398 3.33335Z" fill="#9E9E9E"/>
<path fill-rule="evenodd" clip-rule="evenodd" d="M5.96349 0.166687H6.70448C7.77288 0.166676 8.62552 0.166666 9.29424 0.256574C9.98509 0.349455 10.554 0.546459 11.0041 0.996552C11.4542 1.44664 11.6512 2.01559 11.7441 2.70643C11.7539 2.7796 11.7627 2.85498 11.7705 2.9326C12.1678 2.61225 12.5139 2.34901 12.8171 2.16586C13.2731 1.89036 13.7964 1.69442 14.3226 1.95527C14.8417 2.2126 15.016 2.74384 15.0916 3.2777C15.1674 3.81366 15.1674 4.54083 15.1673 5.4364V6.56364C15.1674 7.4592 15.1674 8.18641 15.0916 8.72236C15.016 9.25622 14.8417 9.78746 14.3226 10.0448C13.7964 10.3056 13.2731 10.1097 12.8171 9.8342C12.5139 9.65105 12.1678 9.38781 11.7705 9.06746C11.7627 9.14508 11.7539 9.22044 11.7441 9.29361C11.6512 9.98446 11.4542 10.5534 11.0041 11.0035C10.554 11.4536 9.98509 11.6506 9.29424 11.7435C8.62552 11.8334 7.77288 11.8334 6.70448 11.8334H5.96349C4.89509 11.8334 4.04245 11.8334 3.37373 11.7435C2.68288 11.6506 2.11394 11.4536 1.66385 11.0035C1.21376 10.5534 1.01675 9.98446 0.923871 9.29361C0.833963 8.62489 0.833973 7.77225 0.833985 6.70386V5.29619C0.833973 4.2278 0.833963 3.37515 0.923871 2.70643C1.01675 2.01559 1.21376 1.44664 1.66385 0.996552C2.11394 0.546459 2.68288 0.349455 3.37373 0.256574C4.04245 0.166666 4.89509 0.166676 5.96349 0.166687ZM11.8292 7.82311C12.4978 8.37455 12.9667 8.75627 13.3342 8.97827C13.7251 9.21444 13.8379 9.16896 13.8785 9.14884C13.9261 9.1252 14.0352 9.05019 14.1014 8.5823C14.1661 8.12493 14.1673 7.46932 14.1673 6.52131V5.47875C14.1673 4.53075 14.1661 3.87514 14.1014 3.41776C14.0352 2.94987 13.9261 2.87486 13.8785 2.85123C13.8379 2.8311 13.7251 2.78563 13.3342 3.02179C12.9667 3.24379 12.4978 3.62551 11.8292 4.17695C11.834 4.52044 11.834 4.89295 11.834 5.29619V6.70385C11.834 7.1071 11.834 7.47962 11.8292 7.82311ZM3.50697 1.24766C2.92702 1.32563 2.60428 1.47033 2.37096 1.70366C2.13763 1.93698 1.99293 2.25972 1.91495 2.83968C1.83505 3.43402 1.83399 4.21928 1.83399 5.33335V6.66669C1.83399 7.78077 1.83505 8.56603 1.91495 9.16036C1.99293 9.74032 2.13763 10.0631 2.37096 10.2964C2.60428 10.5297 2.92702 10.6744 3.50697 10.7524C4.10131 10.8323 4.88657 10.8334 6.00065 10.8334H6.66732C7.7814 10.8334 8.56666 10.8323 9.161 10.7524C9.74095 10.6744 10.0637 10.5297 10.297 10.2964C10.5303 10.0631 10.675 9.74032 10.753 9.16036C10.8329 8.56603 10.834 7.78077 10.834 6.66669V5.33335C10.834 4.21928 10.8329 3.43402 10.753 2.83968C10.675 2.25972 10.5303 1.93698 10.297 1.70366C10.0637 1.47033 9.74095 1.32563 9.161 1.24766C8.56666 1.16775 7.7814 1.16669 6.66732 1.16669H6.00065C4.88657 1.16669 4.10131 1.16775 3.50697 1.24766Z" fill="#9E9E9E"/>
</svg>
