<svg width="18" height="22" viewBox="0 0 18 22" fill="none" xmlns="http://www.w3.org/2000/svg">
<path fill-rule="evenodd" clip-rule="evenodd" d="M14.25 11.25C15.3109 11.25 16.2117 11.717 16.8115 12.1343C17.0586 12.3062 17.5704 12.8025 17.8479 13.0717C17.9142 13.1359 17.9673 13.1874 18 13.2182V21.7499L0.5 21.75V13.2184C0.532763 13.1875 0.58571 13.1362 0.652033 13.0718C0.929595 12.8027 1.44143 12.3063 1.6885 12.1344C2.28829 11.7171 3.18907 11.2502 4.24996 11.2501L7.56063 11.25L9.24998 12.9392L10.9393 11.2499L14.25 11.25ZM14 13.7499V15.7499H16V17.2499H14V19.2499H12.5V17.2499H10.5V15.7499H12.5V13.7499H14Z" fill="#316599"/>
<path d="M9.25 0.249878C6.90279 0.249878 5 2.15267 5 4.49988V5.49988C5 7.84709 6.90279 9.74988 9.25 9.74988C11.5972 9.74988 13.5 7.84709 13.5 5.49988V4.49988C13.5 2.15267 11.5972 0.249878 9.25 0.249878Z" fill="#316599"/>
</svg>
