<svg width="25" height="24" viewBox="0 0 25 24" fill="none" xmlns="http://www.w3.org/2000/svg">
<path fill-rule="evenodd" clip-rule="evenodd" d="M9 9.5C9 7.567 10.567 6 12.5 6C14.433 6 16 7.567 16 9.5C16 11.433 14.433 13 12.5 13C10.567 13 9 11.433 9 9.5ZM12.5 7.5C11.3954 7.5 10.5 8.39543 10.5 9.5C10.5 10.6046 11.3954 11.5 12.5 11.5C13.6046 11.5 14.5 10.6046 14.5 9.5C14.5 8.39543 13.6046 7.5 12.5 7.5Z" fill="#9E9E9E"/>
<path fill-rule="evenodd" clip-rule="evenodd" d="M1.75 12C1.75 6.06294 6.56294 1.25 12.5 1.25C18.4371 1.25 23.25 6.06294 23.25 12C23.25 17.9371 18.4371 22.75 12.5 22.75C6.56294 22.75 1.75 17.9371 1.75 12ZM12.5 2.75C7.39137 2.75 3.25 6.89137 3.25 12C3.25 14.3715 4.14241 16.5345 5.60971 18.1716L5.90934 17.6472C6.93309 15.8556 8.83831 14.75 10.9017 14.75H14.0985C16.1619 14.75 18.0672 15.8556 19.0909 17.6472L19.3904 18.1714C20.8577 16.5343 21.75 14.3714 21.75 12C21.75 6.89137 17.6086 2.75 12.5 2.75ZM18.2685 19.2314L17.7885 18.3914C17.0319 17.0672 15.6237 16.25 14.0985 16.25H10.9017C9.3766 16.25 7.96839 17.0672 7.21171 18.3914L6.73164 19.2315C8.31325 20.4948 10.3184 21.25 12.5 21.25C14.6817 21.25 16.6869 20.4947 18.2685 19.2314Z" fill="#9E9E9E"/>
</svg>
