<svg width="20" height="24" viewBox="0 0 20 24" fill="none" xmlns="http://www.w3.org/2000/svg">
<path fill-rule="evenodd" clip-rule="evenodd" d="M8.0835 12.271C8.29899 12.271 8.50565 12.3566 8.65802 12.509L10.2502 14.1012L11.8423 12.509C11.9947 12.3566 12.2013 12.271 12.4168 12.271C13.8984 12.271 15.152 12.271 16.0912 12.3973C17.0663 12.5284 17.8874 12.8088 18.5395 13.4609C19.1915 14.113 19.472 14.934 19.6031 15.9091C19.7294 16.8484 19.7294 18.0425 19.7293 19.5241V22.8335C19.7293 23.2823 19.3656 23.646 18.9168 23.646H1.5835C1.13477 23.646 0.770997 23.2823 0.770997 22.8335V19.5241C0.770975 18.0425 0.770958 16.8483 0.897232 15.9091C1.02833 14.934 1.3088 14.113 1.96088 13.4609C2.61295 12.8088 3.43398 12.5284 4.4091 12.3973C5.3483 12.271 6.60197 12.271 8.0835 12.271ZM14.5835 14.9794C15.0322 14.9794 15.396 15.3431 15.396 15.7919V17.146H16.7502C17.1989 17.146 17.5627 17.5098 17.5627 17.9585C17.5627 18.4073 17.1989 18.771 16.7502 18.771H15.396V20.1252C15.396 20.5739 15.0322 20.9377 14.5835 20.9377C14.1348 20.9377 13.771 20.5739 13.771 20.1252V18.771H12.4168C11.9681 18.771 11.6043 18.4073 11.6043 17.9585C11.6043 17.5098 11.9681 17.146 12.4168 17.146H13.771V15.7919C13.771 15.3431 14.1348 14.9794 14.5835 14.9794Z" fill="#316599"/>
<path d="M10.2502 0.354248C7.70735 0.354248 5.646 2.4156 5.646 4.95841V6.04175C5.646 8.58456 7.70735 10.6459 10.2502 10.6459C12.793 10.6459 14.8543 8.58456 14.8543 6.04175V4.95841C14.8543 2.4156 12.793 0.354248 10.2502 0.354248Z" fill="#316599"/>
</svg>
