<svg width="18" height="22" viewBox="0 0 18 22" fill="none" xmlns="http://www.w3.org/2000/svg">
<path d="M10.9393 11.2505L14.25 11.2506C15.3109 11.2506 16.2117 11.7176 16.8115 12.1349C17.1176 12.3479 17.3629 12.5601 17.5328 12.7201C17.6181 12.8004 17.6854 12.8684 17.7328 12.9181C17.7565 12.9429 17.7753 12.9632 17.789 12.9783L17.8057 12.9967L17.8111 13.0028L17.8131 13.0051L17.8139 13.006L18 13.2188V21.7505H16.5V13.8079C16.3713 13.6871 16.1849 13.5263 15.9548 13.3662C15.4767 13.0336 14.8775 12.7506 14.25 12.7506L11.5606 12.7505L9.25002 15.0611L6.93937 12.7506L4.25004 12.7507C3.62249 12.7508 3.02326 13.0337 2.54517 13.3664C2.31507 13.5265 2.12867 13.6872 2 13.8081V21.7506H0.5V13.219L0.68542 13.0069L0.686899 13.0052L0.688873 13.003L0.694185 12.9971L0.710989 12.9784C0.724682 12.9634 0.743504 12.9431 0.767228 12.9182C0.814624 12.8686 0.881885 12.8005 0.967184 12.7202C1.13706 12.5603 1.38238 12.348 1.6885 12.1351C2.28829 11.7178 3.18907 11.2508 4.24996 11.2507L7.56063 11.2506L9.24998 12.9398L10.9393 11.2505Z" fill="#9E9E9E"/>
<path fill-rule="evenodd" clip-rule="evenodd" d="M5 4.50049C5 2.15328 6.90279 0.250488 9.25 0.250488C11.5972 0.250488 13.5 2.15328 13.5 4.50049V5.50049C13.5 7.8477 11.5972 9.75049 9.25 9.75049C6.90279 9.75049 5 7.8477 5 5.50049V4.50049ZM9.25 1.75049C7.73122 1.75049 6.5 2.9817 6.5 4.50049V5.50049C6.5 7.01927 7.73122 8.25049 9.25 8.25049C10.7688 8.25049 12 7.01927 12 5.50049V4.50049C12 2.9817 10.7688 1.75049 9.25 1.75049Z" fill="#9E9E9E"/>
<path d="M14 15.7505V14.2505H12.5V15.7505H11V17.2505H12.5V18.7505H14V17.2505H15.5V15.7505H14Z" fill="#9E9E9E"/>
</svg>
