<svg width="18" height="20" viewBox="0 0 18 20" fill="none" xmlns="http://www.w3.org/2000/svg">
<path d="M4.89685 2.15566C6.04301 1.53004 7.34146 0.821289 8.99999 0.821289C10.6663 0.821289 11.9665 1.5316 13.1136 2.15823L13.1524 2.17943C13.7967 2.53135 14.3948 2.85484 15.0148 3.07726L2.72748 15.3547C0.492685 12.4968 -0.357418 8.38927 0.704026 3.87429L0.820054 3.38075H1.32744C2.63015 3.38075 3.66458 2.82813 4.85351 2.17932L4.89685 2.15566Z" fill="#51A8FF"/>
<path d="M3.57779 16.3149L16.5247 3.37837C16.5737 3.37996 16.6229 3.38076 16.6725 3.38076H17.18L17.296 3.8743C19.063 11.3908 15.5322 17.7781 9.13436 19.15L8.99997 19.1788L8.86566 19.15C6.76539 18.6996 4.97411 17.7088 3.57779 16.3149Z" fill="#51A8FF"/>
</svg>
