<svg width="23" height="24" viewBox="0 0 23 24" fill="none" xmlns="http://www.w3.org/2000/svg">
<path d="M11.2502 0.895752C11.5872 0.895752 11.8892 1.10376 12.0093 1.4186L14.5638 8.11329L21.5816 8.45648C21.9122 8.47265 22.1999 8.68776 22.309 9.00029C22.4181 9.31281 22.3266 9.66026 22.0779 9.87863L16.7371 14.5668L18.7 22.0864C18.7857 22.4146 18.6584 22.7615 18.3808 22.9565C18.1032 23.1515 17.7337 23.1534 17.454 22.9615L11.2502 18.703L5.04636 22.9615C4.76668 23.1534 4.39716 23.1515 4.11956 22.9565C3.84196 22.7615 3.71471 22.4146 3.80039 22.0864L5.76334 14.5668L0.422526 9.87863C0.173761 9.66026 0.0823364 9.31281 0.191405 9.00029C0.300474 8.68776 0.588229 8.47265 0.918844 8.45648L7.93661 8.11329L10.4911 1.4186C10.6112 1.10376 10.9132 0.895752 11.2502 0.895752Z" fill="#316599"/>
</svg>
