<svg width="23" height="23" viewBox="0 0 23 23" fill="none" xmlns="http://www.w3.org/2000/svg">
<path d="M11.6667 0.395996C12.0037 0.395996 12.3057 0.604004 12.4258 0.918842L14.9803 7.61353L21.9981 7.95672C22.3287 7.97289 22.6164 8.18801 22.7255 8.50053C22.8346 8.81306 22.7431 9.16051 22.4944 9.37887L17.1536 14.0671L19.1165 21.5866C19.2022 21.9148 19.0749 22.2618 18.7973 22.4567C18.5197 22.6517 18.1502 22.6537 17.8705 22.4617L11.6667 18.2033L5.46286 22.4617C5.18318 22.6537 4.81367 22.6517 4.53607 22.4567C4.25847 22.2618 4.13121 21.9148 4.21689 21.5866L6.17984 14.0671L0.839029 9.37887C0.590265 9.16051 0.49884 8.81306 0.607909 8.50053C0.716978 8.18801 1.00473 7.97289 1.33535 7.95672L8.35311 7.61353L10.9076 0.918842C11.0277 0.604004 11.3297 0.395996 11.6667 0.395996Z" fill="#316599"/>
</svg>
