<svg width="15" height="16" viewBox="0 0 15 16" fill="none" xmlns="http://www.w3.org/2000/svg">
<path fill-rule="evenodd" clip-rule="evenodd" d="M7.49967 0.833252C3.54163 0.833252 0.333008 4.04188 0.333008 7.99992C0.333008 11.958 3.54163 15.1666 7.49967 15.1666C11.4577 15.1666 14.6663 11.958 14.6663 7.99992C14.6663 4.04188 11.4577 0.833252 7.49967 0.833252ZM8.16634 5.33325C8.16634 4.96506 7.86786 4.66659 7.49967 4.66659C7.13148 4.66659 6.83301 4.96506 6.83301 5.33325V7.99992C6.83301 8.17673 6.90325 8.3463 7.02827 8.47132L8.3616 9.80466C8.62195 10.065 9.04406 10.065 9.30441 9.80466C9.56476 9.54431 9.56476 9.1222 9.30441 8.86185L8.16634 7.72378V5.33325Z" fill="#9E9E9E"/>
</svg>
