<svg width="20" height="20" viewBox="0 0 20 20" fill="none" xmlns="http://www.w3.org/2000/svg">
<path d="M10.5 14.134V14.4227L10.75 14.567C10.8453 14.622 10.9198 14.707 10.9619 14.8087C11.004 14.9104 11.0114 15.0231 10.9829 15.1294C10.9544 15.2357 10.8917 15.3297 10.8043 15.3967C10.717 15.4637 10.61 15.5 10.5 15.5H10.01C9.94303 15.5 9.87671 15.4868 9.81483 15.4612C9.75296 15.4355 9.69673 15.398 9.64938 15.3506C9.60202 15.3033 9.56445 15.247 9.53882 15.1852C9.51319 15.1233 9.5 15.057 9.5 14.99V10V9.5H9C8.86739 9.5 8.74022 9.44732 8.64645 9.35355C8.55268 9.25978 8.5 9.13261 8.5 9C8.5 8.86739 8.55268 8.74022 8.64645 8.64645C8.74022 8.55268 8.86739 8.5 9 8.5H9.99C10.2719 8.5 10.5 8.72814 10.5 9.01V14.134ZM10 0.5C15.2469 0.5 19.5 4.75314 19.5 10C19.5 15.2469 15.2469 19.5 10 19.5C4.75314 19.5 0.5 15.2469 0.5 10C0.5 4.75314 4.75314 0.5 10 0.5ZM10 1.5C7.74566 1.5 5.58365 2.39553 3.98959 3.98959C2.39553 5.58365 1.5 7.74566 1.5 10C1.5 12.2543 2.39553 14.4163 3.98959 16.0104C5.58365 17.6045 7.74566 18.5 10 18.5C12.2543 18.5 14.4163 17.6045 16.0104 16.0104C17.6045 14.4163 18.5 12.2543 18.5 10C18.5 7.74566 17.6045 5.58365 16.0104 3.98959C14.4163 2.39553 12.2543 1.5 10 1.5ZM10 5.5C10.1326 5.5 10.2598 5.55268 10.3536 5.64645C10.4473 5.74022 10.5 5.86739 10.5 6C10.5 6.13261 10.4473 6.25978 10.3536 6.35355C10.2598 6.44732 10.1326 6.5 10 6.5C9.86739 6.5 9.74022 6.44732 9.64645 6.35355C9.55268 6.25978 9.5 6.13261 9.5 6C9.5 5.86739 9.55268 5.74022 9.64645 5.64645C9.74022 5.55268 9.86739 5.5 10 5.5Z" fill="#212121" stroke="#FEFEFE"/>
</svg>
