<svg width="75" height="75" viewBox="0 0 75 75" fill="none" xmlns="http://www.w3.org/2000/svg">
<rect x="0.5" y="0.5" width="74" height="74" rx="37" fill="#DCEEFF"/>
<path fill-rule="evenodd" clip-rule="evenodd" d="M35.9975 57.2056C35.5244 56.9633 34.8562 56.6058 34.0578 56.1363C32.4648 55.1997 30.3336 53.8061 28.1941 51.98C23.9671 48.3722 19.4163 42.8197 19.4163 35.5547C19.4163 25.3999 27.4664 17.0835 37.4997 17.0835C47.533 17.0835 55.583 25.3999 55.583 35.5547C55.583 42.8197 51.0323 48.3722 46.8052 51.98C44.6657 53.8061 42.5346 55.1997 40.9416 56.1363C40.1431 56.6058 39.475 56.9633 39.0019 57.2056L37.4997 57.9168L35.9975 57.2056ZM44.4997 35.1668C44.4997 39.0328 41.3657 42.1668 37.4997 42.1668C33.6337 42.1668 30.4997 39.0328 30.4997 35.1668C30.4997 31.3008 33.6337 28.1668 37.4997 28.1668C41.3657 28.1668 44.4997 31.3008 44.4997 35.1668Z" fill="#51A8FF"/>
<path d="M18.2471 43.571C15.9172 38.2282 15.9172 32.109 18.2471 26.7662L13.9695 24.9008C11.1209 31.4331 11.1209 38.9041 13.9695 45.4364L18.2471 43.571Z" fill="#51A8FF"/>
<path d="M56.7523 26.7662C59.0821 32.109 59.0821 38.2282 56.7523 43.571L61.0299 45.4364C63.8785 38.9041 63.8785 31.4331 61.0299 24.9008L56.7523 26.7662Z" fill="#51A8FF"/>
</svg>
