<svg width="24" height="24" viewBox="0 0 24 24" fill="none" xmlns="http://www.w3.org/2000/svg">
<path fill-rule="evenodd" clip-rule="evenodd" d="M16.6023 8.16336V9.44114C18.0376 9.88915 19.0834 11.1885 19.0834 12.7404V16.8544C19.0834 18.7757 17.4906 20.3334 15.5269 20.3334H8.47408C6.50955 20.3334 4.91675 18.7757 4.91675 16.8544V12.7404C4.91675 11.1885 5.96337 9.88915 7.39782 9.44114V8.16336C7.40629 5.67901 9.46397 3.66669 11.9874 3.66669C14.5447 3.66669 16.6023 5.67901 16.6023 8.16336ZM12.0043 5.11589C13.7233 5.11589 15.1205 6.48228 15.1205 8.16336V9.26144H8.87969V8.1468C8.88816 6.474 10.2853 5.11589 12.0043 5.11589ZM12.741 15.7125C12.741 16.1182 12.4108 16.4412 11.9958 16.4412C11.5894 16.4412 11.2591 16.1182 11.2591 15.7125V13.874C11.2591 13.4766 11.5894 13.1536 11.9958 13.1536C12.4108 13.1536 12.741 13.4766 12.741 13.874V15.7125Z" fill="#51A8FF"/>
</svg>
