<svg width="20" height="18" viewBox="0 0 20 18" fill="none" xmlns="http://www.w3.org/2000/svg">
<path d="M9.95894 1.39942L9.99959 1.43183L10.0402 1.39943C10.3789 1.13171 10.8736 0.796665 11.4996 0.528867C12.7698 -0.0145649 14.5648 -0.269708 16.6108 0.824774C19.1615 2.1892 20.4133 5.45536 19.6123 8.81908C18.802 12.2215 15.9229 15.7254 10.2407 17.8475L9.9996 17.9375L9.75853 17.8475C4.0763 15.7254 1.19717 12.2215 0.386864 8.81908C-0.414222 5.45536 0.837562 2.1892 3.38821 0.824765C5.43422 -0.269719 7.22925 -0.0145692 8.49953 0.52886C9.12551 0.796658 9.62027 1.1317 9.95894 1.39942Z" fill="#D13030"/>
</svg>
