<svg width="24" height="24" viewBox="0 0 24 24" fill="none" xmlns="http://www.w3.org/2000/svg">
<path fill-rule="evenodd" clip-rule="evenodd" d="M16.1159 4.5C17.2334 4.5 18.3084 4.94167 19.0992 5.73417C19.8909 6.525 20.3334 7.59167 20.3334 8.70833V15.2917C20.3334 17.6167 18.4417 19.5 16.1159 19.5H7.88341C5.55758 19.5 3.66675 17.6167 3.66675 15.2917V8.70833C3.66675 6.38333 5.54925 4.5 7.88341 4.5H16.1159ZM17.4417 9.95L17.5084 9.88333C17.7076 9.64167 17.7076 9.29167 17.4992 9.05C17.3834 8.92583 17.2242 8.85 17.0584 8.83333C16.8834 8.82417 16.7167 8.88333 16.5909 9L12.8334 12C12.3501 12.4008 11.6576 12.4008 11.1667 12L7.41675 9C7.15758 8.80833 6.79925 8.83333 6.58341 9.05833C6.35841 9.28333 6.33341 9.64167 6.52425 9.89167L6.63341 10L10.4251 12.9583C10.8917 13.325 11.4576 13.525 12.0501 13.525C12.6409 13.525 13.2167 13.325 13.6826 12.9583L17.4417 9.95Z" fill="#51A8FF"/>
</svg>
