<svg width="210" height="170" viewBox="0 0 210 170" fill="none" xmlns="http://www.w3.org/2000/svg">
<path d="M101.645 169.842C148.923 169.842 187.249 131.937 187.249 85.1792C187.249 38.4213 148.923 0.516479 101.645 0.516479C54.3672 0.516479 16.041 38.4213 16.041 85.1792C16.041 131.937 54.3672 169.842 101.645 169.842Z" fill="url(#paint0_linear_1119_4587)"/>
<path fill-rule="evenodd" clip-rule="evenodd" d="M175.504 139.148C176.284 138.873 177.105 138.508 177.738 137.979C178.489 137.351 178.795 136.541 179.001 135.69C179.264 134.595 179.37 133.43 179.689 132.334C179.808 131.926 180.035 131.773 180.133 131.704C180.38 131.532 180.63 131.486 180.865 131.503C181.143 131.523 181.526 131.627 181.777 132.089C181.813 132.155 181.86 132.255 181.891 132.393C181.914 132.494 181.929 132.811 181.953 132.941C182.013 133.262 182.064 133.583 182.112 133.906C182.27 134.98 182.361 135.893 182.861 136.88C183.539 138.22 184.219 139.04 185.141 139.403C186.032 139.754 187.097 139.688 188.459 139.412C188.589 139.381 188.717 139.355 188.844 139.333C189.444 139.229 190.018 139.619 190.136 140.211C190.254 140.802 189.872 141.378 189.277 141.508C189.153 141.535 189.031 141.56 188.91 141.584C187.07 142.034 184.94 143.642 183.702 145.05C183.32 145.484 182.762 146.698 182.192 147.472C181.771 148.043 181.299 148.419 180.902 148.552C180.636 148.642 180.412 148.628 180.227 148.583C179.958 148.517 179.735 148.373 179.563 148.144C179.47 148.019 179.383 147.85 179.342 147.636C179.322 147.533 179.32 147.27 179.321 147.151C179.205 146.756 179.062 146.37 178.959 145.972C178.712 145.021 178.227 144.419 177.652 143.623C177.113 142.879 176.535 142.411 175.687 142.037C175.577 142.011 174.687 141.795 174.372 141.672C173.913 141.49 173.695 141.187 173.615 141.023C173.48 140.745 173.466 140.503 173.493 140.301C173.533 140.002 173.669 139.747 173.909 139.541C174.058 139.412 174.28 139.288 174.578 139.227C174.808 139.18 175.418 139.152 175.504 139.148ZM180.724 137.598C180.766 137.689 180.81 137.78 180.856 137.873C181.85 139.835 182.961 140.931 184.311 141.462L184.356 141.48C183.453 142.143 182.635 142.884 182.01 143.595C181.753 143.888 181.412 144.496 181.044 145.119C180.71 144.044 180.163 143.284 179.475 142.333C178.949 141.607 178.399 141.061 177.722 140.615C178.247 140.349 178.748 140.037 179.184 139.672C179.911 139.065 180.391 138.362 180.724 137.598Z" fill="#E3E3E3"/>
<ellipse cx="4.55427" cy="68.6812" rx="4.05427" ry="4.00969" fill="#E3E3E3"/>
<path d="M34.3379 22.4924C33.75 22.1957 33.0174 22.3828 32.6523 22.9495H32.6514C32.2817 23.5189 32.4178 24.264 32.9355 24.6741L33.0439 24.7522C36.1151 26.7123 38.1133 29.4175 39.1318 32.8909L39.1328 32.8899C39.3338 33.584 40.0612 33.9753 40.751 33.7756H40.752C41.4388 33.5757 41.8451 32.8546 41.6396 32.1594H41.6406C40.4423 28.0738 38.0704 24.8686 34.4531 22.5588L34.3379 22.4924Z" fill="#51A8FF" stroke="#51A8FF"/>
<path d="M91.4316 20.5148C85.134 17.8295 78.1094 20.1221 74.5742 25.8654C74.0847 25.4334 73.5714 25.0282 73.0391 24.6525H73.0381L72.7246 24.4376C66.1938 20.0854 56.8948 21.5985 49.7188 28.0743L49.373 28.3917L49.1514 28.6075C48.0584 29.7169 47.2028 31.2605 46.5342 33.047C45.8192 34.9575 45.3059 37.1798 44.9541 39.5226L44.8145 40.5167C44.2925 44.5046 44.1749 48.7854 44.1914 52.3849C43.4949 50.8089 42.7307 49.2671 41.9229 47.7316L40.1963 44.4357C36.1453 36.708 31.8364 28.8256 25.1475 22.92L25.1465 22.9181L25.042 22.8361C24.5057 22.4538 23.7545 22.5242 23.3057 23.0284L23.2207 23.1329C22.8563 23.6344 22.9014 24.3242 23.3193 24.7765L23.415 24.8693C29.8265 30.5313 33.9417 38.1134 37.9102 45.6974L39.6084 48.9415C41.0254 51.6338 42.2935 54.3163 43.2725 57.171V57.172C43.57 58.0333 43.8669 58.8666 44.1133 59.7198C44.1122 59.7145 44.1128 59.7168 44.1133 59.7296C44.114 59.7471 44.1137 59.773 44.1113 59.8116C44.1089 59.8513 44.1059 59.8914 44.1016 59.9445L44.0908 60.1124V60.1173L44.0898 60.3351C44.0932 60.5558 44.1119 60.7811 44.1621 60.9728V60.9767C44.2884 61.4447 44.5726 61.7754 44.9326 61.964L44.9355 61.9659C45.199 62.1018 45.5263 62.1754 45.9141 62.1066L45.9189 62.1056C46.1956 62.0534 46.6517 61.8938 46.8936 61.3224L46.8926 61.3214C46.9247 61.2457 46.9424 61.1617 46.9521 61.1075C46.9649 61.0366 46.9771 60.9507 46.9863 60.8517C46.9956 60.7522 47.0029 60.6358 47.0068 60.504V60.0616L46.8994 57.173C46.7731 53.5428 46.659 47.7285 47.2402 42.2618L47.3203 41.5509C47.6073 39.1249 48.0238 36.807 48.6484 34.838C49.2365 32.9843 49.9951 31.4834 50.9629 30.4855L51.1592 30.2931C57.5446 24.3307 65.6909 22.8902 71.2666 26.5988L71.5293 26.7794C72.2173 27.2645 72.8643 27.8037 73.46 28.3937C73.3592 28.9441 73.2993 29.6208 73.3086 30.3077C73.3181 31.0089 73.3995 31.7522 73.5977 32.3976L73.6895 32.6681C73.9513 33.359 74.3761 33.9365 74.9619 34.2697L75.0811 34.3322C75.719 34.6482 76.5007 34.6919 77.3965 34.2921L77.5771 34.2062C78.4445 33.7678 78.7504 32.9268 78.6729 32.0529C78.6049 31.2609 78.1867 30.3898 77.9639 29.9982L77.7744 29.6749C77.3826 29.0239 76.9437 28.4041 76.4648 27.8195C79.2424 22.6725 85.2963 20.5882 90.6553 23.0216H90.6562C91.3123 23.3182 92.0839 23.0315 92.3867 22.38L92.3877 22.3771C92.6865 21.7226 92.3984 20.9488 91.7402 20.6505L91.4316 20.5148Z" fill="#51A8FF" stroke="#51A8FF"/>
<rect x="62.1377" y="44.4419" width="147.363" height="52.5382" rx="24" fill="#142A40"/>
<rect x="139.31" y="62.5288" width="66.6179" height="9.23718" rx="4.61859" fill="#CCC6D9"/>
<rect x="74.9888" y="72.8643" width="97.921" height="6.89026" rx="3.44513" fill="white"/>
<ellipse cx="190.651" cy="71.1416" rx="8.5676" ry="8.61283" fill="#E1DCEB"/>
<rect x="0.5" y="88.3673" width="147.363" height="52.5382" rx="24" fill="#51A8FF"/>
<rect x="37.3403" y="106.454" width="49.6921" height="6.89026" rx="3.44513" fill="black"/>
<rect x="37.3403" y="116.79" width="97.921" height="6.89027" rx="3.44513" fill="white"/>
<ellipse cx="21.9192" cy="115.067" rx="8.5676" ry="8.61283" fill="#CCC6D9"/>
<defs>
<linearGradient id="paint0_linear_1119_4587" x1="100.985" y1="-27.0518" x2="102.7" y2="270.271" gradientUnits="userSpaceOnUse">
<stop stop-color="#F2F2F2"/>
<stop offset="1" stop-color="#EFEFEF"/>
</linearGradient>
</defs>
</svg>
