<svg width="18" height="20" viewBox="0 0 18 20" fill="none" xmlns="http://www.w3.org/2000/svg">
<path d="M8.99937 12.5207H9.00116L9.00206 12.5198C9.38064 12.5198 9.68864 12.2136 9.68956 11.8341L9.71337 2.24487C10.395 2.96549 11.1283 3.8428 11.2148 3.94632C11.2198 3.95222 11.2226 3.95561 11.2232 3.95631C11.4652 4.24872 11.8987 4.28905 12.1911 4.04614C12.4826 3.80414 12.523 3.37055 12.281 3.07813C12.2178 3.00113 10.7199 1.19988 9.85821 0.467467C9.62996 0.27405 9.34858 0.160384 9.06624 0.146634H9.05344C8.73169 0.134717 8.42 0.243795 8.15325 0.461962C8.1505 0.463795 8.14687 0.466552 8.14412 0.469302C7.28337 1.20172 5.78554 3.00297 5.72229 3.07905C5.47937 3.37147 5.51966 3.80505 5.81208 4.04705C6.10449 4.28997 6.53712 4.24964 6.78004 3.95722C6.79104 3.94347 7.60414 2.96539 8.33748 2.19448L8.31366 11.8314C8.31275 12.2109 8.61987 12.5198 8.99937 12.5207Z" fill="#060606"/>
<path d="M9.91585 19.8541C13.5541 19.8541 15.3801 19.8541 16.6515 18.6414C17.9366 17.4149 17.9367 15.6668 17.9367 12.1816C17.9367 8.69646 17.9367 6.94746 16.6506 5.72096C16.1382 5.2333 15.4992 4.92253 14.6403 4.74287C14.2681 4.66587 13.9042 4.9042 13.8263 5.27546C13.7493 5.64762 13.9877 6.01155 14.3589 6.08947C14.9657 6.21688 15.3801 6.41029 15.7028 6.71737C16.5626 7.53686 16.5626 9.08967 16.5626 12.1815C16.5626 15.2734 16.5626 16.8264 15.7028 17.6459C14.8301 18.4791 13.1874 18.4791 9.91675 18.4791H8.08342C4.81275 18.4791 3.17099 18.4791 2.2974 17.6459C1.43758 16.8264 1.43758 15.2736 1.43758 12.1817C1.43758 9.08983 1.43759 7.53779 2.29651 6.71829C2.62009 6.4112 3.03534 6.21688 3.64125 6.09038C4.01342 6.01247 4.25171 5.64762 4.1738 5.27637C4.09588 4.90421 3.73197 4.66678 3.35981 4.74378C2.50089 4.92345 1.86193 5.23422 1.3486 5.72188C0.0634766 6.94834 0.0634766 8.69726 0.0634766 12.1813C0.0634766 15.6653 0.0634766 17.4149 1.3486 18.6414C2.62093 19.8541 4.44697 19.8541 8.08429 19.8541H9.91585Z" fill="#060606"/>
</svg>
