<svg width="96" height="96" viewBox="0 0 96 96" fill="none" xmlns="http://www.w3.org/2000/svg">
<path d="M48.6575 0.875473C22.1542 0.517504 0.517504 22.1542 0.875473 48.6575C1.22891 74.0755 21.9254 94.772 47.3434 95.1255C73.8513 95.488 95.4834 73.8512 95.1209 47.348C94.772 21.9254 74.0756 1.22891 48.6575 0.875473ZM44.8535 44.482L56.5328 31.1148C57.1655 30.3907 58.06 29.9476 59.0194 29.8831C59.9788 29.8185 60.9245 30.1377 61.6486 30.7704C62.3727 31.4031 62.8157 32.2976 62.8803 33.257C62.9449 34.2164 62.6257 35.1621 61.993 35.8862L50.3137 49.2534C50.0004 49.6119 49.6195 49.9052 49.1929 50.1165C48.7662 50.3278 48.3022 50.4531 47.8271 50.4851C47.3521 50.517 46.8754 50.4551 46.4243 50.3029C45.9731 50.1506 45.5564 49.911 45.1979 49.5977C44.8394 49.2844 44.5461 48.9036 44.3347 48.4769C44.1234 48.0503 43.9982 47.5862 43.9662 47.1112C43.9342 46.6361 43.9961 46.1594 44.1484 45.7083C44.3006 45.2572 44.5402 44.8405 44.8535 44.482ZM36.0493 65.0651C35.3696 65.7445 34.4479 66.1261 33.4869 66.1261C32.5259 66.1261 31.6042 65.7445 30.9245 65.0651L20.0608 54.1902C19.7243 53.8534 19.4574 53.4536 19.2754 53.0136C19.0934 52.5737 18.9998 52.1022 19.0001 51.6261C19.0003 51.15 19.0943 50.6786 19.2766 50.2389C19.459 49.7991 19.7263 49.3995 20.0631 49.063C20.3999 48.7265 20.7996 48.4597 21.2396 48.2777C21.6795 48.0957 22.151 48.0021 22.6271 48.0023C23.1032 48.0025 23.5746 48.0965 24.0143 48.2789C24.4541 48.4613 24.8537 48.7285 25.1902 49.0653L36.0652 59.9403C36.7424 60.6222 37.1211 61.545 37.1181 62.506C37.1152 63.467 36.7307 64.3875 36.0493 65.0651ZM76.1055 35.8862L50.7577 64.8862C50.4312 65.2604 50.0312 65.5635 49.5826 65.7766C49.134 65.9898 48.6464 66.1086 48.15 66.1255H48.0277C47.5513 66.1255 47.0796 66.0317 46.6396 65.8494C46.1995 65.6671 45.7997 65.3998 45.463 65.0629L34.6016 54.1879C33.922 53.5077 33.5404 52.5854 33.5408 51.6239C33.5413 50.6623 33.9236 49.7404 34.6038 49.0608C35.284 48.3812 36.2063 47.9996 37.1679 48.0001C38.1294 48.0005 39.0513 48.3829 39.7309 49.063L46.4825 55.8214C46.658 55.997 46.8677 56.1346 47.0986 56.2258C47.3295 56.317 47.5767 56.3597 47.8248 56.3514C48.0729 56.3432 48.3167 56.284 48.541 56.1776C48.7653 56.0712 48.9653 55.9199 49.1288 55.733L70.6522 31.1148C71.2849 30.3907 72.1794 29.9476 73.1388 29.8831C74.0982 29.8185 75.0439 30.1377 75.768 30.7704C76.492 31.4031 76.9351 32.2976 76.9997 33.257C77.0643 34.2164 76.7451 35.1621 76.1123 35.8862H76.1055Z" fill="#51A8FF"/>
</svg>
