<svg width="24" height="24" viewBox="0 0 24 24" fill="none" xmlns="http://www.w3.org/2000/svg">
<path d="M11.9999 4C9.91831 4 8.2308 5.74921 8.2308 7.90697C8.2308 10.0647 9.91831 11.8139 11.9999 11.8139C14.0816 11.8139 15.7691 10.0647 15.7691 7.90697C15.7691 5.74921 14.0816 4 11.9999 4Z" fill="#51A8FF"/>
<path d="M16.469 14.2899C16.3534 14.2223 16.2513 14.1625 16.1684 14.1114C13.6168 12.5365 10.3831 12.5365 7.83157 14.1114C7.74807 14.1629 7.64491 14.2233 7.52813 14.2916C7.01638 14.5908 6.24279 15.0432 5.71284 15.5809C5.38139 15.9172 5.06646 16.3603 5.00921 16.9033C4.94833 17.4806 5.19132 18.0225 5.67881 18.5039C6.51984 19.3344 7.5291 20 8.83452 20H15.1655C16.4709 20 17.4802 19.3344 18.3212 18.5039C18.8087 18.0225 19.0517 17.4806 18.9908 16.9033C18.9335 16.3603 18.6186 15.9172 18.2871 15.5809C17.7572 15.0432 16.9836 14.5908 16.4718 14.2916L16.469 14.2899Z" fill="#51A8FF"/>
</svg>
